<svg xmlns="http://www.w3.org/2000/svg" viewBox="0 0 254.63 453.67"><defs><style>.cls-1{fill:#f1c27c;}.cls-2{fill:#16a565;}.cls-3{fill:#fff;}.cls-4{fill:#5d65ae;}.cls-5{fill:#4585a1;}.cls-6{fill:#f57f40;}</style></defs><title>Artboard 18</title><g id="Layer_2" data-name="Layer 2"><path class="cls-1" d="M97.51,84.23c.68,3.42,1.63,7,4.18,9.4,2.27,2.11,5.43,2.9,8.46,3.53,6,1.25,12.22,2.17,18.32,1.34s12.15-3.58,15.84-8.51c3.48-4.65,4.52-10.63,5.45-16.37,1.29-8,2.59-16,1.76-24.07s-4.07-16.14-10.37-21.17-14.92-6.41-23-5.69c-11.46,1-20.78,6.76-21.8,18.45C95.1,55.71,94.61,69.76,97.51,84.23Z"/><path class="cls-1" d="M145.09,66.19l2.84-6.81a3.35,3.35,0,0,1,1.15-1.67,3.19,3.19,0,0,1,2-.27,32.52,32.52,0,0,1,5.16.86,6.15,6.15,0,0,1,2.69,1.22c1.2,1.09,1.46,2.84,1.65,4.45.52,4.52.71,9.89-2.87,12.7a11.43,11.43,0,0,1-3.43,1.69,39,39,0,0,1-9.52,2"/><path class="cls-1" d="M119.85,97.3a26.09,26.09,0,0,1-.23,10.38,1.74,1.74,0,0,0,0,1c.19.52.82.71,1.36.82l8.72,1.87a2.15,2.15,0,0,0,1.83-.16,1.92,1.92,0,0,0,.54-1.3,17.27,17.27,0,0,0-1.22-7.3,18.14,18.14,0,0,0-2.8-5.81A6.85,6.85,0,0,0,122.43,94a3.83,3.83,0,0,0-3.15,1.87,2.54,2.54,0,0,0,.89,3.33"/><path class="cls-1" d="M169.85,185.82l4.51,31.4c.72,5,1.44,10.26.11,15.19-.87,3.22-2.6,6.2-3.08,9.51s.87,7.29,4.08,8.21c2.24.64,4.69-.45,6.29-2.15,2.38-2.54,3.18-6.16,3.67-9.61,2.63-18.41-.63-37.1-3.88-55.41-1.18-6.66-2.42-13.46-5.75-19.34-1.63-2.87-3.89-5.59-7-6.71-2.12-.76-6.55-.7-7.81,1.7-1.47,2.81,1,3.3,2.45,5.51C167.7,170.45,168.79,178.41,169.85,185.82Z"/><path class="cls-1" d="M79.76,173.44a185.45,185.45,0,0,0-8.11,70.15c.34,4.46,1.66,9.91,6,11,4.09,1,8-3,8.8-7.09s-.41-8.37-.93-12.56c-.77-6.24,0-12.56.86-18.79l6.49-49.87c.49-3.73.8-14.63-5.83-11.5C82.75,156.8,81.08,169.26,79.76,173.44Z"/><path class="cls-1" d="M112.16,363.16c0,2.12,0,4.36,1.16,6.16,2.11,3.38,6.85,3.61,10.83,3.46a3.07,3.07,0,0,0,3.69-3.65c.67-21.9,1.4-44.11-2.63-65.76-1.18-6.34-7.44-15.89-11.71-5.86-3.41,8-1.4,19.58-1.39,28Q112.13,344.32,112.16,363.16Z"/><path class="cls-1" d="M143.21,358.31c.23,4.42.53,8.83.82,13.24.12,1.8.34,3.79,1.7,5a6.86,6.86,0,0,0,3.74,1.23l10.79,1.32c2.9-25-.41-50.22-3.72-75.15-.47-3.52-2.37-15.25-8.42-13.58-4.8,1.33-4.15,13.1-4.4,16.64A418.93,418.93,0,0,0,143.21,358.31Z"/><path class="cls-2" d="M96.15,301.84a3.09,3.09,0,0,0,3.4,3.77l21.54,2a6.73,6.73,0,0,0,3.81-.39c2-1,2.37-3.63,2.54-5.85q1.3-17.08,1.73-34.2c4.26-.37,6.69,4.71,7.53,8.89a80.7,80.7,0,0,1,1.45,20.38c-.14,2.42-.35,5,.85,7.11,2.16,3.83,7.52,4,11.89,3.63s9.3-1.2,12.36-4.48c3.73-4,3.47-10.19,2.89-15.63A564.22,564.22,0,0,0,156,224.72a4.63,4.63,0,0,0-5.52-4.59q-14.46-.3-28.91-.38c-5.82,0-13.29-.87-18,3.34s-4.39,10.84-4.62,16.48c-.4,9.62-1.14,19.22-1.78,28.82A332,332,0,0,0,96.15,301.84Z"/><path class="cls-3" d="M112,386.27c0,2.46.07,5.2,2,7,1.13,1,2.74,1.56,4,2.53,1.59,1.27,2.34,3.16,3.47,4.78,1.72,2.47,4.32,4.31,6.87,6.1a120.29,120.29,0,0,0-.27-35.79c-.67-4.21-7.94-10-12.7-6.81S112,381.61,112,386.27Z"/><path class="cls-4" d="M106.48,226.38c-4.28-.55-9.17-1.65-11.12-5.5-1-2.06-1-4.48-.9-6.78a783.82,783.82,0,0,1,8.86-90.82c.66-4.19,1.55-8.75,4.79-11.49,2.14-1.81,5-2.51,7.71-3.17,4.27-1,8.61-2,13-1.87s8.91,1.7,11.78,5,3.68,7.84,4.41,12.14L155.88,188c1.77,10.45,4.61,21.25,5.38,31.81.73,10.07-11.32,7.83-18.92,8.13A216.37,216.37,0,0,1,106.48,226.38Z"/><path class="cls-3" d="M145.54,379.9c0,9.51-.05,19.11,2.57,28.42a65.11,65.11,0,0,0,10.12-5.75,7.78,7.78,0,0,0,2.81-2.8,5.83,5.83,0,0,0,.29-2.8l-1.43-23.76a5,5,0,0,0-.71-2.73,8.42,8.42,0,0,0-3.62-2.31c-3.92-1.68-7.13-4-10-1.15C143.7,368.9,145.55,377.38,145.54,379.9Z"/><path class="cls-5" d="M104.35,407.45c-3.47,1.24-7.22,1.93-10.22,4.06s-5,6.41-3,9.55c9.09,3.47,19.27,1.45,28.7-.94,2.33-.59,4.75-1.25,6.55-2.84a10.48,10.48,0,0,0,3.09-8.25c-.2-5.83-3.6-19.94-12.23-17.6C109.93,393.41,113.24,404.27,104.35,407.45Z"/><path class="cls-5" d="M150.08,418.4c3.07,5.73,10.73,6.72,17.22,7l18.81.86c1.48-2.68-.73-5.9-3.07-7.89-6.5-5.52-15.12-8.67-20.14-15.57-1-1.37-1.83-2.87-3-4.14C146.94,384.07,146.41,411.55,150.08,418.4Z"/><path class="cls-6" d="M165.37,166.67a11.31,11.31,0,0,1-4.95,2,11.28,11.28,0,0,1-3.9-.68l-4-1.2a3.84,3.84,0,0,1-1.89-1,3.88,3.88,0,0,1-.65-2.45,235.48,235.48,0,0,0-7.6-50.94c10.2,7,16.9,17.61,23.71,27.66,3,4.37,9,9.85,10.8,14.69C179.18,161.12,169.95,163.9,165.37,166.67Z"/><path class="cls-6" d="M91.75,131.07c-3.12,4.55-7,8.55-10.13,13.07S76,154,76.2,159.47a187.44,187.44,0,0,0,26.42,7.58c.19-9.19,3.06-18.09,4.8-27.12.81-4.2,5.26-25.75.58-27.74C102.36,109.79,94,127.75,91.75,131.07Z"/></g></svg>