<svg xmlns="http://www.w3.org/2000/svg" viewBox="0 0 392.9 532"><defs><style>.cls-1{fill:#9cc7d7;}.cls-1,.cls-11,.cls-6,.cls-8,.cls-9{stroke:#000;}.cls-1,.cls-11,.cls-13,.cls-15,.cls-21,.cls-3,.cls-6,.cls-8,.cls-9{stroke-miterlimit:10;}.cls-2{fill:#3a4f59;}.cls-13,.cls-15,.cls-3,.cls-8{fill:none;}.cls-3{stroke:#87a0aa;}.cls-4{fill:#434e50;}.cls-5{fill:#0d141f;}.cls-14,.cls-6{fill:#fff;}.cls-7{fill:#576669;}.cls-9{fill:#eef2f4;}.cls-10{fill:#515659;}.cls-11{fill:#0b0b0b;}.cls-12{fill:#e57747;}.cls-13{stroke:#171717;}.cls-13,.cls-15{stroke-width:3px;}.cls-15{stroke:#ed2224;}.cls-16{fill:#eacbad;}.cls-17{fill:#f2d4b5;}.cls-18{fill:#7e4220;}.cls-19{fill:#c32727;}.cls-20{fill:#edc448;}.cls-21{fill:#4158a0;stroke:#1a478b;}.cls-22{fill:#040506;}.cls-23{fill:#767779;}</style></defs><title>Artboard 15</title><g id="Layer_2" data-name="Layer 2"><polygon class="cls-1" points="111.6 297.09 115.48 480.86 56.42 480.86 56.07 362.6 78.67 269.05 111.6 297.09"/><polygon class="cls-1" points="311.36 338.94 311.36 386.54 300.73 383.57 241.24 377.62 241.24 480.86 115.48 480.86 111.6 297.09 311.36 338.94"/><polygon class="cls-1" points="267.58 395.46 267.58 480.86 241.24 480.86 241.67 382.72 267.58 395.46"/><polygon class="cls-1" points="327.49 400.56 327.49 480.86 267.58 480.86 267.58 395.46 327.49 400.56"/><polygon class="cls-2" points="77.39 264.16 53.6 361.46 56.07 362.6 78.67 269.05 111.6 297.09 311.36 338.94 314.9 335.12 234.6 313.38 77.39 264.16"/><line class="cls-3" x1="115.48" y1="303.8" x2="310.53" y2="343.2"/><line class="cls-3" x1="115.48" y1="312.08" x2="310.53" y2="347.45"/><line class="cls-3" x1="115.48" y1="320.68" x2="311.36" y2="353.19"/><line class="cls-3" x1="117.39" y1="326.42" x2="310.53" y2="357.8"/><line class="cls-3" x1="115.48" y1="333.43" x2="311.44" y2="364.81"/><line class="cls-3" x1="115.48" y1="340.87" x2="311.44" y2="370.08"/><line class="cls-3" x1="115.48" y1="347.45" x2="311.36" y2="375.92"/><line class="cls-3" x1="115.48" y1="355.47" x2="310.53" y2="380.91"/><line class="cls-3" x1="117.07" y1="362.6" x2="241.24" y2="377.62"/><line class="cls-3" x1="115.48" y1="370.08" x2="241.24" y2="386.54"/><line class="cls-3" x1="115.48" y1="377.62" x2="241.63" y2="391.11"/><line class="cls-3" x1="115.48" y1="384.36" x2="241.24" y2="396.61"/><line class="cls-3" x1="115.48" y1="391.11" x2="241.57" y2="404.49"/><line class="cls-3" x1="117.07" y1="399.07" x2="241.24" y2="410.76"/><line class="cls-3" x1="115.48" y1="407.04" x2="241.24" y2="416.76"/><line class="cls-3" x1="114.07" y1="414.06" x2="241.24" y2="422.02"/><line class="cls-3" x1="113.25" y1="422.02" x2="241.47" y2="428.13"/><line class="cls-3" x1="114.39" y1="429.34" x2="241.44" y2="434.45"/><line class="cls-3" x1="115.48" y1="436.79" x2="241.42" y2="440.93"/><line class="cls-3" x1="114.69" y1="443.66" x2="241.39" y2="446.87"/><line class="cls-3" x1="114.85" y1="450.93" x2="241.36" y2="453.67"/><line class="cls-3" x1="115.48" y1="458.02" x2="241.33" y2="461.85"/><line class="cls-3" x1="115.18" y1="466.61" x2="241.29" y2="469.18"/><line class="cls-3" x1="113.89" y1="473.96" x2="241.26" y2="476.19"/><line class="cls-3" x1="56.41" y1="474.52" x2="113.21" y2="471.68"/><line class="cls-3" x1="56.39" y1="469.47" x2="114.48" y2="464.41"/><line class="cls-3" x1="56.38" y1="463.81" x2="114.78" y2="455.93"/><line class="cls-3" x1="56.36" y1="457.82" x2="114.16" y2="448.92"/><line class="cls-3" x1="56.34" y1="453.37" x2="114.01" y2="441.74"/><line class="cls-3" x1="56.33" y1="448.92" x2="112.58" y2="434.88"/><line class="cls-3" x1="56.32" y1="444.91" x2="113.71" y2="427.58"/><line class="cls-3" x1="56.3" y1="439.04" x2="112.58" y2="420.35"/><line class="cls-3" x1="56.28" y1="433.57" x2="113.32" y2="409.22"/><line class="cls-3" x1="56.07" y1="426.39" x2="113.1" y2="399.14"/><line class="cls-3" x1="56.25" y1="421.4" x2="113" y2="394.11"/><line class="cls-3" x1="56.24" y1="417.52" x2="114.78" y2="383.14"/><line class="cls-3" x1="56.22" y1="412.77" x2="114.78" y2="376.47"/><line class="cls-3" x1="56.21" y1="407.75" x2="112.53" y2="371.85"/><line class="cls-3" x1="56.19" y1="403.45" x2="112.36" y2="363.82"/><line class="cls-3" x1="56.07" y1="399.14" x2="111.6" y2="359.03"/><line class="cls-3" x1="56.07" y1="394.11" x2="112.08" y2="350.89"/><line class="cls-3" x1="56.07" y1="389.19" x2="111.94" y2="343.84"/><line class="cls-3" x1="56.07" y1="385.29" x2="110.94" y2="337.31"/><line class="cls-3" x1="56.07" y1="378.47" x2="111.58" y2="327.16"/><line class="cls-3" x1="111.46" y1="321.46" x2="56.07" y2="371.8"/><line class="cls-3" x1="111.28" y1="312.99" x2="56.08" y2="364.71"/><line class="cls-3" x1="110.94" y1="304.78" x2="57.21" y2="356.89"/><line class="cls-3" x1="110.94" y1="296.89" x2="59.69" y2="346.63"/><line class="cls-3" x1="102.19" y1="294.7" x2="61.94" y2="337.31"/><line class="cls-3" x1="98.41" y1="288.4" x2="65.03" y2="324.3"/><line class="cls-3" x1="94.79" y1="284.62" x2="68.97" y2="308.21"/><line class="cls-3" x1="91.16" y1="280.05" x2="72.35" y2="294.25"/><line class="cls-3" x1="241.63" y1="391.11" x2="253.56" y2="388.57"/><line class="cls-3" x1="241.24" y1="396.61" x2="261.64" y2="392.54"/><line class="cls-3" x1="241.57" y1="404.49" x2="267.59" y2="395.46"/><line class="cls-3" x1="241.24" y1="410.76" x2="267.59" y2="404.92"/><line class="cls-3" x1="241.24" y1="416.76" x2="267.59" y2="410.76"/><line class="cls-3" x1="241.24" y1="424.75" x2="267.59" y2="418.04"/><line class="cls-3" x1="241.46" y1="430.94" x2="267.59" y2="424.75"/><line class="cls-3" x1="241.44" y1="434.45" x2="267.59" y2="431.89"/><line class="cls-3" x1="241.42" y1="440.93" x2="267.59" y2="438.24"/><line class="cls-3" x1="241.39" y1="446.87" x2="267.59" y2="445.27"/><line class="cls-3" x1="241.36" y1="453.67" x2="267.59" y2="452.3"/><line class="cls-3" x1="241.33" y1="461.85" x2="267.59" y2="459.94"/><line class="cls-3" x1="241.29" y1="469.18" x2="267.59" y2="467.58"/><line class="cls-3" x1="241.26" y1="476.19" x2="267.59" y2="475.07"/><line class="cls-3" x1="267.59" y1="404.92" x2="282.46" y2="404.92"/><line class="cls-3" x1="314.9" y1="408.21" x2="327.49" y2="409.27"/><line class="cls-3" x1="267.59" y1="418.04" x2="282.46" y2="416.76"/><line class="cls-3" x1="267.59" y1="410.76" x2="282.46" y2="411.9"/><line class="cls-3" x1="314.9" y1="414.34" x2="327.49" y2="416.76"/><line class="cls-3" x1="314.9" y1="421.39" x2="327.49" y2="421.39"/><line class="cls-3" x1="314.9" y1="427.84" x2="327.49" y2="427.84"/><line class="cls-3" x1="267.59" y1="424.75" x2="282.46" y2="424.75"/><line class="cls-3" x1="267.59" y1="438.24" x2="282.46" y2="438.83"/><line class="cls-3" x1="314.9" y1="440.93" x2="327.49" y2="439.58"/><line class="cls-3" x1="267.59" y1="445.27" x2="280.85" y2="445.27"/><line class="cls-3" x1="267.59" y1="452.3" x2="282.46" y2="452.3"/><line class="cls-3" x1="267.59" y1="459.94" x2="280.85" y2="459.94"/><line class="cls-3" x1="267.59" y1="467.58" x2="282.46" y2="466.95"/><line class="cls-3" x1="267.59" y1="475.07" x2="282.46" y2="475.07"/><line class="cls-3" x1="314.9" y1="460.89" x2="327.49" y2="460.89"/><line class="cls-3" x1="314.9" y1="452.99" x2="327.49" y2="453.67"/><line class="cls-3" x1="314.9" y1="446.87" x2="328.98" y2="446.87"/><line class="cls-3" x1="314.9" y1="467.27" x2="328.98" y2="467.27"/><line class="cls-3" x1="314.9" y1="473.96" x2="327.49" y2="475.07"/><path class="cls-4" d="M79.37,265l35.69,29.32L313.26,336c1.2.25-12.36-5.29-13.46-5.84L249.74,305Z"/><polygon class="cls-5" points="151.17 313.38 151.17 360.2 164.34 362.6 164.34 316.01 151.17 313.38"/><polygon class="cls-5" points="187.71 320.69 187.71 365.72 198.33 365.72 198.33 322.81 187.71 320.69"/><polygon class="cls-6" points="164.34 316.01 187.71 320.69 187.71 365.72 164.34 362.6 164.34 316.01"/><polygon class="cls-5" points="253.56 333.43 253.56 372.94 264.61 375.92 261.64 335.99 253.56 333.43"/><polygon class="cls-5" points="282.46 337.99 282.46 377.62 290.1 377.62 290.1 340.87 282.46 337.99"/><polygon class="cls-6" points="261.64 335.99 282.46 337.99 282.46 377.62 264.61 375.92 261.64 335.99"/><polygon class="cls-7" points="241.24 377.62 268.86 387.81 333.44 395.46 300.73 383.57 241.24 377.62"/><polygon class="cls-6" points="154.14 402.26 154.14 450.93 218.3 453.67 218.3 408.21 154.14 402.26"/><polygon class="cls-5" points="142.25 402.26 142.25 453.67 154.14 450.93 154.14 402.26 142.25 402.26"/><polyline class="cls-5" points="218.3 408.21 228.07 408.21 229.77 453.67 218.3 453.67"/><path class="cls-8" d="M242.09,383.14l-.42-.42,25.92,12.75,65.86,5.1v-5.1l-64.58-7.65-27.62-10.2Z"/><polygon class="cls-9" points="282.46 396.61 282.46 480.86 314.9 480.86 314.9 399.22 282.46 396.61"/><rect class="cls-10" x="290.1" y="410.76" width="16.99" height="27.98"/><path class="cls-11" d="M280.11,428.87a2.19,2.19,0,0,1,.72,1.63,11,11,0,0,1-.39,3.65c-1.35,5.34-8.13,1.25-9.14-2.29-.42-1.47-.27-2.76,1.25-3.35S278.85,428,280.11,428.87Z"/><path class="cls-8" d="M311.68,441.06a1.41,1.41,0,0,1,.65,1.42,6.4,6.4,0,0,1-.49,1.58,7.83,7.83,0,0,0-.21,4.68c.13.5.22,1.21-.27,1.37a.68.68,0,0,1-.8-.52,2.13,2.13,0,0,1,.07-1.05c.61-2.61.15-5,.26-7.58A1.34,1.34,0,0,1,311.68,441.06Z"/><polygon class="cls-10" points="91.58 331.84 98.91 324.83 98.91 365.72 91.58 370.08 91.58 331.84"/><polygon class="cls-10" points="70.55 354.68 70.55 386.54 65.13 391.11 65.13 359.88 70.55 354.68"/><polygon class="cls-10" points="91.58 410.76 91.58 453.67 98.91 450.93 98.91 408.21 91.58 410.76"/><polygon class="cls-10" points="70.55 422.02 70.55 456.43 65.13 458.02 65.13 424.75 70.55 422.02"/><polygon class="cls-10" points="85.78 309.53 77.24 320.69 77.24 291.37 85.78 281.17 85.78 309.53"/><polyline class="cls-10" points="166.78 340.87 184.25 343.2 184.25 362.6 166.78 359.56"/><polygon class="cls-10" points="176.03 428.13 176.03 445.53 198.33 446.87 198.33 430.94 176.03 428.13"/><rect class="cls-10" x="206.93" y="430.94" width="7.97" height="14.59"/><polygon class="cls-10" points="206.94 426.48 206.94 408.21 214.9 410.76 214.9 426.48 206.94 426.48"/><polygon class="cls-10" points="279.27 374.95 279.27 357.8 265.89 354.68 265.89 372.89 279.27 374.95"/><polygon class="cls-10" points="166.78 405.77 168.06 446.87 157.76 446.87 157.76 405.77 166.78 405.77"/><polygon class="cls-10" points="176.03 407.04 176.03 424.75 198.33 426.48 196.35 408.21 176.03 407.04"/><line class="cls-8" x1="241.67" y1="382.72" x2="241.24" y2="480.86"/><line class="cls-8" x1="267.59" y1="395.46" x2="267.59" y2="480.86"/><line class="cls-8" x1="327.49" y1="400.56" x2="327.49" y2="480.86"/><line class="cls-8" x1="111.6" y1="297.09" x2="115.48" y2="480.86"/><line class="cls-8" x1="56.07" y1="362.6" x2="56.42" y2="478.74"/><line class="cls-8" x1="73.31" y1="291.23" x2="56.07" y2="362.6"/><line class="cls-8" x1="111.6" y1="297.09" x2="78.67" y2="269.05"/><line class="cls-8" x1="73.31" y1="291.23" x2="78.67" y2="269.05"/><circle class="cls-12" cx="127.88" cy="177.47" r="62.04"/><line class="cls-13" x1="83.95" y1="133.23" x2="174.25" y2="218.69"/><path class="cls-13" d="M158.67,123.6C193.18,153,90.51,225.25,78.84,215.47"/><path class="cls-13" d="M66.69,187.74c-.85-10.27,69.48-7.7,51.15,51"/><path class="cls-13" d="M141.5,118c-27.27.12,9.36,77.86,48.42,55.48"/><circle class="cls-14" cx="142.25" cy="70.88" r="24.66"/><path class="cls-15" d="M117.6,72.75c-.49-4.55,39.78-3.42,29.28,22.59"/><path class="cls-15" d="M147.53,46.72c-10.91.05,3.74,31.35,19.38,22.34"/><line class="cls-15" x1="119.37" y1="67.46" x2="121.11" y2="72.55"/><line class="cls-15" x1="123.7" y1="67.46" x2="124.03" y2="74.08"/><line class="cls-15" x1="128.31" y1="67.46" x2="128.31" y2="74.08"/><line class="cls-15" x1="133.11" y1="68.9" x2="131.01" y2="74.08"/><line class="cls-15" x1="138.32" y1="70.39" x2="131.01" y2="74.08"/><line class="cls-15" x1="135.32" y1="75.47" x2="140.65" y2="72.24"/><line class="cls-15" x1="139.32" y1="77.5" x2="145.3" y2="74.08"/><line class="cls-15" x1="150.62" y1="91.04" x2="143.75" y2="91.04"/><line class="cls-15" x1="150.62" y1="85.51" x2="147.18" y2="87.1"/><line class="cls-15" x1="151.95" y1="80.06" x2="143.75" y2="83.01"/><line class="cls-15" x1="145.3" y1="74.08" x2="140.65" y2="80.82"/><line class="cls-15" x1="148.9" y1="77.5" x2="140.65" y2="80.82"/><line class="cls-15" x1="163.25" y1="67.46" x2="164.58" y2="73.85"/><line class="cls-15" x1="158.59" y1="67.46" x2="158.59" y2="72.24"/><line class="cls-15" x1="142.25" y1="46.22" x2="147.85" y2="49.62"/><line class="cls-15" x1="147.18" y1="52.96" x2="138.65" y2="47.78"/><line class="cls-15" x1="139.65" y1="54.02" x2="147.18" y2="52.96"/><line class="cls-15" x1="142.25" y1="58.7" x2="150.62" y2="57.26"/><line class="cls-15" x1="155.44" y1="67.46" x2="155.33" y2="71.49"/><path class="cls-15" d="M149.62,70.21a8,8,0,0,0,4.68-5.63C153.19,66.45,151.57,69.25,149.62,70.21Z"/><path class="cls-15" d="M144.3,63.28a8.16,8.16,0,0,0,5.69-2C147.62,62.66,146.67,61.92,144.3,63.28Z"/><path class="cls-16" d="M223.71,99.49A68.49,68.49,0,0,1,231.39,115c.7,2,2,4.55,4.15,4.13a3.71,3.71,0,0,0,2-1.49A11.75,11.75,0,0,0,224,99.42"/><path class="cls-17" d="M271.4,124.58a5.93,5.93,0,0,1-3.23,1.89c-2.23.51-4.55,0-6.84-.06-5.48-.11-15.1.21-4.85-5.75l12.3-7.15C272.52,111.33,275.1,120.35,271.4,124.58Z"/><path class="cls-18" d="M227,131.43c-5.53,7.77-10.58,15.92-17.8,22.67-2.86,2.67-2.63,5.63-1,8.27,1.43,2.34,1.92,2.24,4.61,3.44s4,4.69,7.34,4.66c3.17,0,5.82-3.12,7.69-5.78l35-49.67a22.21,22.21,0,0,0,2.57-4.29c1.41-3.5.36-7.23-2.54-9C250.94,94.31,232.73,123.35,227,131.43Z"/><path class="cls-19" d="M249.92,118.52a54.18,54.18,0,0,1-15.79-11.3C227.85,101,221.88,96.09,220,87a70.8,70.8,0,0,1-1.16-11.35c-.32-6.53,3.13-13,6.65-18.28,4.8-7.2,10.66-14,18.42-17.85a53.33,53.33,0,0,1,11.24-3.73c5.68-1.36,11.6-2.42,17.32-1.28a35.91,35.91,0,0,1,10.48,4.25c9.42,5.33,18,12.91,22.18,22.9,2.51,6,3.3,12.63,3.34,19.15.07,9.89-2,21.07-8,29.19-2.95,4-6.72,7.41-10.45,10.74a20.37,20.37,0,0,1-4.84,3.53c-4.91,2.27-10.54,1.75-15.56.33l-8.86-2.5A79.87,79.87,0,0,1,249.92,118.52Z"/><circle class="cls-20" cx="284.52" cy="78.07" r="8.34" transform="translate(0.22 156.95) rotate(-30.85)"/><path class="cls-21" d="M298,153.19c5.13-6.84,11-3.39,11-3.39l57.5,18.07s4.63,1.14-2.25,12.91-25.75,46.56-25.75,46.56.15,3.85-5.49,1.93-60.76-19.63-60.76-19.63-3.5-2-2-5.06S298,153.19,298,153.19Z"/><polygon class="cls-22" points="303.46 158.99 357.96 175.91 334.71 220.99 277.46 200.24 300.71 157.74 303.46 158.99"/><path class="cls-21" d="M224.32,264.64l3.64,10s2.25,3.63,4.75,2.5-.12-4.12,2.5-3.5,48,16.5,48,16.5,1.88,11.75,11.5,4.5,41-44,41-44l-1.51-6,4.26-4.75-4.75-8.75-5-1.33Z"/><path class="cls-21" d="M272.21,208.89s-9.75-.27-6.25,10.18l66,23.33s-5.12-10.76,1.75-11.26S272.21,208.89,272.21,208.89Z"/><path class="cls-23" d="M338.46,239.89s3,4.12-2.75,10.75-3.75-3.25-3.75-3.25Z"/><path class="cls-21" d="M332,242.39c-.12.49-38.25,43.24-38.25,43.24s-1.12,3.63-9,0S227,266.39,227,266.39s-4.75-.87-1.5-5.25S266,219.06,266,219.06Z"/><ellipse class="cls-23" cx="293.33" cy="253.33" rx="4.63" ry="3.06"/><ellipse class="cls-23" cx="306.33" cy="253.89" rx="4.63" ry="2.5"/><circle class="cls-23" cx="255.79" cy="268.11" r="2.97"/><circle class="cls-23" cx="267.52" cy="272.2" r="2.32"/><circle class="cls-23" cx="292.9" cy="235.82" r="1.94"/><path class="cls-23" d="M265.48,237.76a27,27,0,0,0,2.92-1.26,5.34,5.34,0,0,1,4.67.55,13.38,13.38,0,0,1-3.5,3.53l4.08,1.12a8.16,8.16,0,0,1-1.38,3.33,2,2,0,0,1-.85.77c-1.13.43-2.08-1-3.25-1.32a2.94,2.94,0,0,0-2.87,1.4,19.52,19.52,0,0,1-2,2.76.68.68,0,0,1-.35.21.75.75,0,0,1-.5-.18l-2.89-1.91a8.08,8.08,0,0,1,2.71-4,17.06,17.06,0,0,0-4.62-2.2c.91-.7,1.22-2.15,2.33-2.47a2.84,2.84,0,0,1,1.41.08l4.68,1.07c.66-.91.43-2.43,1.42-3a2.1,2.1,0,0,1,.89-.19,10.77,10.77,0,0,1,4.53.79"/><path class="cls-23" d="M303.47,284.07c-.26-.38,4.43-7,5.06-7.48.9-.71,5.37-2.07,3.46-4.27C309.58,269.53,300.07,279.2,303.47,284.07Z"/><path class="cls-21" d="M366.46,167.87s5.63,2,4,6.51-32,57-32,57l-4.75-.25Z"/></g></svg>