<svg xmlns="http://www.w3.org/2000/svg" viewBox="0 0 599.34 353.51">
  <defs>
    <style>
      .cls-1 {
        fill: #f2d456;
      }
      .cls-2 {
        fill: #2eb4d8;
      }
      .cls-3,
      .cls-4 {
        fill: none;
        stroke: #000;
        stroke-miterlimit: 10;
      }
      .cls-4 {
        stroke-width: 5px;
      }
      .cls-5 {
        fill: #3db984;
      }
      .cls-6 {
        font-size: 14px;
        fill: #231f20;
        font-family: Futura-Medium, Futura Medium;
      }
      .cls-7 {
        letter-spacing: -0.01em;
      }
    </style>
  </defs>
  <title>Artboard 12</title>
  <g id="Layer_2" data-name="Layer 2"><path class="cls-1" d="M383.1,301C336.32,299.65,265,264.9,261.93,177.59c0-18.71,3.12-54.79-45-66.82-1.34-73.95,0-69.49,0-69.49s107.36-2.67,119.83,123.4c.45,23.16-1.34,57.91,46.33,61.48Z"/><path class="cls-2" d="M49.58,301c46.78-1.34,118.05-36.08,121.17-123.4,0-18.71-3.12-54.79,45-66.82,1.34-73.95,0-69.49,0-69.49S108.39,38.6,95.91,164.67c-.45,23.16,1.34,57.91-46.33,61.48Z"/><line class="cls-3" x1="49.58" y1="210.65" x2="49.58" y2="315.32"/><line class="cls-4" x1="216.34" y1="24.65" x2="216.34" y2="129.32"/><path class="cls-5" d="M384.2,300.88c46.78-1.34,118.05-36.08,121.17-123.4,0-18.71-3.12-54.79,45-66.82,1.34-73.95,0-69.49,0-69.49S443,38.49,430.53,164.56c-.45,23.16,1.34,57.91-46.33,61.48Z"/><line class="cls-4" x1="49.58" y1="210.65" x2="49.58" y2="315.32"/><line class="cls-4" x1="383.1" y1="207.62" x2="383.1" y2="312.29"/><line class="cls-4" x1="550.37" y1="23.82" x2="550.37" y2="128.49"/>
    <text class="cls-6" transform="translate(32.94 330.5)">1998</text>
    <text class="cls-6" transform="translate(366.94 330.5)">2008</text>
    <text class="cls-6" transform="translate(199.94 144.5)">2003</text>
    <text class="cls-6" transform="translate(534.94 144.39)">future</text>
  </g>
</svg>
