<svg xmlns="http://www.w3.org/2000/svg" viewBox="0 0 230.74 474.02"><defs><style>.cls-1{fill:#362013;}.cls-2{fill:#494a7b;}.cls-3{fill:#f1c27c;}.cls-4{fill:#ebe4d7;}.cls-5{fill:#57add2;}</style></defs><title>Artboard 20</title><g id="Layer_2" data-name="Layer 2"><path class="cls-1" d="M146.7,436.61a1.06,1.06,0,0,1,.4.72c0,.54-.76.7-1.31.69a19.94,19.94,0,0,1-9.56-2.08c-1.52-.86-2.85-2-4.39-2.85-2.48-1.32-5.36-1.67-8.11-2.26-1.43-.31-3-.81-3.65-2.08-3.18-6.26,8.74-5.72,11.74-4.19C137.94,427.67,142,431.77,146.7,436.61Z"/><path class="cls-1" d="M75,423.29c-2.79,1.68-5.48,4.33-5.28,7.5a1.16,1.16,0,0,0,.26.76,1.38,1.38,0,0,0,1,.29c7,.26,14-1.18,20.85-2.63a79.22,79.22,0,0,0,9.21-2.32,1.73,1.73,0,0,0,1.11-.76,1.49,1.49,0,0,0,0-1C99.5,414.55,81.23,419.55,75,423.29Z"/><path class="cls-2" d="M77.73,301.39a146.72,146.72,0,0,0,2,19.23c.93,4.78,2.34,9.48,3.08,14.29,1.05,6.86.72,13.83,1,20.76.74,20.59,6.6,40.83,6.58,61.43a10.74,10.74,0,0,0,.6,4.46c1.62,3.6,6.51,4.26,10.57,4.4a642.22,642.22,0,0,1,2.34-87.66c.56-5.91,1.21-11.82,1.42-17.76,0-11.57-1.25-23.08-2-34.62-.28-4.46-4.29-27.11,3.81-26a6.72,6.72,0,0,1,4.36,3c3.2,4.55,3,10.5,2.6,16l-.41,6.23c-1.41,21.4.07,43.74.59,65.47.23,9.53.82,18.68,1.9,28,1.15,10,.53,19.82,1,29.79l.36,7.24a82.42,82.42,0,0,0,.47,14.06l16.57-3c-1.05-8.14-2.11-16.33-1.66-24.53.39-7.07,1.91-14,2.91-21,3.89-27.21,0-54.94,2.4-82.31,2.16-25.09,9.48-50.69,2.7-75l-21.16,1.53a12.89,12.89,0,0,1-3.48-.06,15.47,15.47,0,0,1-3.95-1.69c-8.83-4.57-20.66-6.26-30.61-6.12-10.92.15-9.58,6.17-8.42,14.09C76.66,254.48,76.33,278.36,77.73,301.39Z"/><path class="cls-3" d="M81.54,21.59c-1.59,3-1.76,6.47-1.91,9.83-.6,13.66-1.12,27.82,4.18,40.5a12.76,12.76,0,0,0,3.83,5.59,15.26,15.26,0,0,0,6.23,2.22c5.47,1.08,11.07,2.06,16.59,1.27s11-3.66,13.46-8.52a23.18,23.18,0,0,0,1.91-7.33,188.39,188.39,0,0,0,1.69-32c-.08-2.52-.24-5.13-1.44-7.37-2-3.82-6.6-5.65-10.9-6.78C107,16.89,86.44,12.36,81.54,21.59Z"/><path class="cls-3" d="M120,49.72a18.57,18.57,0,0,1,12.82-5.94c.59,4,1.11,8.33-.95,11.83s-6.27,5.32-10.17,6.86"/><path class="cls-3" d="M92.06,75,91,84.18A3.38,3.38,0,0,0,91.1,86a3.53,3.53,0,0,0,1.83,1.45,37.61,37.61,0,0,0,12.48,3.85c4.37.39,9-.55,12.36-3.29,1.49-1.23,2.75-3,2.62-4.85-.22-3.27-4.28-5.16-5.09-8.34C107,75.94,100.34,73.93,92.06,75Z"/><path class="cls-4" d="M130.06,87.93a30.13,30.13,0,0,1,6.53,11.26c1.75,5.55,1.82,11.44,1.87,17.25l.23,25c0,1.95,0,4.07-1.3,5.57s-3.36,1.95-5.31,2.26a46.16,46.16,0,0,1-15.21.26,62.6,62.6,0,0,1-11.55-3.62c-9.77-3.77-19.54-7.55-29.22-11.54a26.59,26.59,0,0,1-6.46-3.4,26.25,26.25,0,0,1-4.34-4.76l-6.57-8.52a2.26,2.26,0,0,1,.29-3.6q9.67-11,19.6-21.72a31.8,31.8,0,0,1,7.32-6.43,8.38,8.38,0,0,1,4.69-1.29c3.27.25,5.53,3.17,8.38,4.75,3.56,2,8.07,1.76,11.92.36C118.87,86.86,122.46,79.65,130.06,87.93Z"/><path class="cls-4" d="M71.52,222.87a6.27,6.27,0,0,0,2.43,1.18q13.61,4.3,27.5,7.73l1.61-14.26A17.4,17.4,0,0,1,108.6,230q17.27-4.32,34.87-7.19c1.21-4.56-2.12-9.32-6.43-11.49s-9.36-2.37-14.21-2.52c-12.11-.38-24.26-.76-36.35.08-4.13.29-9.62-.23-12.48,3C72,214.1,68.86,220.42,71.52,222.87Z"/><path class="cls-3" d="M163.49,202.13a2.93,2.93,0,0,1-.43,3.67,9.12,9.12,0,0,1-3.51,2L156.63,209a4.43,4.43,0,0,0-2,1.24c-.8,1.06-.43,2.57.28,3.69a25.24,25.24,0,0,1,2.23,3.27c.17.4.25.95-.12,1.19a1.13,1.13,0,0,1-.58.13,14.62,14.62,0,0,1-4.84-.37,9.66,9.66,0,0,1-5.77-5.27,17.27,17.27,0,0,1-1.35-7.74,31.16,31.16,0,0,1,1.73-9.53,3.38,3.38,0,0,1,1.25-1.91,3.79,3.79,0,0,1,2-.36h5.39C156.05,197.83,160.57,198.47,163.49,202.13Z"/><path class="cls-3" d="M42.58,265.08a14.76,14.76,0,0,0,.75,5.06c1.42,3.56,5.55,5.61,9.49,5.58,4.36,0,8.94-2.8,9.63-7a13.7,13.7,0,0,0-.38-4.89c-1.2-6-2.44-12.08-5.59-17.36A3.68,3.68,0,0,0,55.18,245c-3.81-2-10-.62-11.67,3.12C41.27,253.33,42.58,259.68,42.58,265.08Z"/><path class="cls-4" d="M154,190.21c-.8,1.35-1.63,2.83-1.39,4.37s1.39,2.65,2.5,3.71l3.4,3.25c2.77,2.64,6.1,5.49,10,5.1a4,4,0,0,0,1.89-.63,4.31,4.31,0,0,0,1.44-2.2,8.6,8.6,0,0,0-1.37-8.53c-2.28-2.5-6-3.46-8.78-5.37C159.35,188.29,156.33,186.31,154,190.21Z"/><path class="cls-4" d="M41.11,248.84a.58.58,0,0,0,.13.42.62.62,0,0,0,.37.12,49.2,49.2,0,0,0,15.73-.87,2,2,0,0,0,1.18-.56,1.78,1.78,0,0,0,.25-1.24c-.27-4.48-4.63-13.38-10.08-14S41,245,41.11,248.84Z"/><path class="cls-5" d="M126.16,87c14.83,7.88,30,16,41.14,28.3,9.62,10.6,15.72,23.69,21.47,36.65,3.21,7.23,6.42,14.88,5.52,22.7-1,8.53-6.68,15.78-12.34,22.39-1.93,2.25-4,4.56-6.79,5.64-3.9,1.5-8.48.21-11.82-2.24s-5.71-5.93-8-9.33c7.94-7.09,16.6-16.06,14.82-26.37-1-6-5.43-10.8-9.65-15.27l-14.42-15.29a14.59,14.59,0,0,1,4.93,7.53c6.28,23.53-4.2,46.54-8,70.57a6.58,6.58,0,0,1-1.45,3.76,6.81,6.81,0,0,1-2.92,1.46,111,111,0,0,1-59.85,1.28C69,216.2,67.63,200.25,67,192.19Q65.29,171.09,64.21,150c3.68,16.73-5.86,31.47-8.21,48.42a115.6,115.6,0,0,0-.82,18.46q.24,10.67,1.44,21.3c.21,1.89.21,4.25-1.52,5.14a5,5,0,0,1-1.87.41l-11.91,1.06c-1.83-8.81-3.07-18.3-4.24-27.15-2.22-16.86.72-33,2.76-49.7,1.53-12.56,1.65-25.24,4.73-37.59,1.7-6.83,4-20.08,8.67-25.29A21.93,21.93,0,0,1,58,101.36c6.94-4.45,16.1-13.91,24.9-10.84,3.25,1.13,14.75,13,11.46,16.78l10.12-11.73a30,30,0,0,0,5.68,9.81C116.41,100.34,120.93,93.05,126.16,87Z"/></g></svg>