<svg xmlns="http://www.w3.org/2000/svg" viewBox="0 0 635.76 474.02"><defs><style>.cls-1,.cls-4{fill:#d8a487;}.cls-1,.cls-2,.cls-3{stroke:#0f0f10;}.cls-1,.cls-2,.cls-3,.cls-5{stroke-miterlimit:10;}.cls-2{fill:#edc4ab;}.cls-3{fill:none;}.cls-5{font-size:24.3px;stroke:#b3aed7;font-family:MyriadPro-Regular, Myriad Pro;}.cls-10,.cls-5{fill:#b3aed6;}.cls-6{fill:#798b99;}.cls-7{fill:#747776;}.cls-8{fill:#fff;}.cls-9{fill:#91a2ac;}.cls-11{fill:#b34c43;}.cls-12{fill:#3b7f7e;}.cls-13{fill:#4e9293;}.cls-14{fill:#9a9d9c;}.cls-15{fill:#4c7ca7;}.cls-16{fill:#161419;}.cls-17{fill:#eceaf5;}.cls-18{fill:#6e6e73;}.cls-19{fill:#bebec0;}.cls-20{fill:#a8a9ad;}.cls-21{fill:#818286;}.cls-22{fill:#d2d3d4;}.cls-23{fill:#808185;}</style></defs><title>Artboard 19</title><g id="Layer_2" data-name="Layer 2"><path class="cls-1" d="M157.28,117.89c1.57,0,2.81,1.27,3.81,2.47l3.71,4.44c.92,1.1,2,2.3,3.46,2.34a5.92,5.92,0,0,0,2.5-.75c2.65-1.17,5.52-1.73,8.27-2.65s5.48-2.28,7.2-4.61c1.53-2.08,2.22-4.89,4.38-6.3-.48-4.26,2.74-8,1.7-12.17a8.52,8.52,0,0,0-3.48-.36,9.25,9.25,0,0,0-3.52.89,9.78,9.78,0,0,0-1.51,1c-2,1.54-3.71,5.4-5.71,6.22-1.26.52-3.11.27-4.5.74a13.87,13.87,0,0,0-4.33,2.39c0-.12.42-.12.38,0s-.19.14-.31.14a12.44,12.44,0,0,1-2.91-.29c-1.39-.31-2.8-.85-4.2-.62-1.58.26-2.82,1.45-3.95,2.59a5.19,5.19,0,0,0-1.29,1.72C156.6,116.08,156.44,117.21,157.28,117.89Z"/><path class="cls-2" d="M135.89,95.33l-1.2,19.42c-.12,1.92-.07,4.21,1.53,5.29a5.13,5.13,0,0,0,2.13.69,30.92,30.92,0,0,0,17-2.23"/><path class="cls-1" d="M148,114.53a3.16,3.16,0,0,0,1.76,2.45,9.34,9.34,0,0,0,3,.84l18.3,2.89a11.59,11.59,0,0,0-1.47-6.93,29.39,29.39,0,0,0-4.32-5.75,9.92,9.92,0,0,0-3.2-2.64,4.7,4.7,0,0,1-4.87-2.6c-.61-1.42-.66-3.28-2-4-1.24.14-2,1.35-2.66,2.43C150.11,105.4,147.68,109.67,148,114.53Z"/><path class="cls-2" d="M169.25,79.26A61.71,61.71,0,0,0,163.63,86c-.63.88-1.24,1.77-1.85,2.67-2.61,3.85-5.1,7.83-7.86,11.57-2.07,2.81-2.15,6.19-3.9,9.25-2.23,3.9-6.5,6.88-11,6.5a1.24,1.24,0,0,1-.61-.17,1.32,1.32,0,0,1-.41-1,41.43,41.43,0,0,1,7.19-27.24,46.37,46.37,0,0,0,3.45-5.17c1.36-2.65,1.92-5.71,3.56-8.2,1.48-2.24,3.73-3.85,5.85-5.49a92.35,92.35,0,0,0,11-10.07,35.67,35.67,0,0,1,2.74-2.77,26.91,26.91,0,0,1,5.23-3.32c6.09-3.18,12.78-6.18,16.44-12,.84-1.34,1.62-2.9,3.1-3.45,7.57-2.82,15.93-.47,24-.34,3,0,6-.08,9-.21l11.4-.5c.7,1-.62,2.19-1.76,2.64S236.64,40,237,41.16c-3.65,4.21-7.66,8.46-11.31,12.66A25.66,25.66,0,0,0,221.32,60c-.7,1.58-1.07,3.27-1.68,4.88-1.26,3.32-3.5,6.17-5,9.36-3.23,6.7-3.33,14.77-7.55,20.88a13.53,13.53,0,0,0-15,4.66,3.78,3.78,0,0,1-1.15,1.21,3.73,3.73,0,0,1-1.9.23c-2.6-.08-5.4.65-7,2.67-1.1,1.35-1.61,3.16-2.91,4.32-2.71,2.42-7.6,1-10,3.73-2.5-4-6.87-6.46-11.21-8.34-.68-.3-1.45-.66-1.67-1.38a4.79,4.79,0,0,1,0-1.49,2.86,2.86,0,0,0-1.4-2.45l.76-.58"/><path class="cls-3" d="M142.69,108a6.59,6.59,0,0,1,.18,6.18,3.06,3.06,0,0,1-2.17,1.65c-1.58.18-2.85-1.46-3-3s.37-3.14.59-4.71-.06-3,.2-4.45C140.16,104.16,141.87,106.41,142.69,108Z"/><path class="cls-3" d="M187,103.55a3.64,3.64,0,0,0-1.22,1.41,38.84,38.84,0,0,0-3,6.28q1.48.12,3,.14a5.59,5.59,0,0,0,2.37-.33,4.34,4.34,0,0,0,1.44-1.13c1-1.11,2.91-4.57,2-6.12C190.88,102.71,188,102.94,187,103.55Z"/><path class="cls-3" d="M197.9,116.8l.19.19"/><path class="cls-1" d="M208.66,93.35c-1.28,1-3.1,0-4.67-.51a8.62,8.62,0,0,0-8.33,2.27,16.61,16.61,0,0,0-4.24,7.88,63.23,63.23,0,0,0-1.59,10.48,9.3,9.3,0,0,0,7.76-1.93,26.08,26.08,0,0,0,5.41-6.21c1.36-2,2.54-4,3.78-6s1.14-3.52,1.3-5.81c.28-4,2.34-3.91,5.69-4.07a5.22,5.22,0,0,1,2.24.22,3.52,3.52,0,0,1,1.92,2.47,10.41,10.41,0,0,1,.11,3.23,1.28,1.28,0,0,1-1.14,1.45l-11.43,3.51a2.88,2.88,0,0,0,1.43-1,10.47,10.47,0,0,0-6.83,1.54,6.53,6.53,0,0,0-2.9,4c-.07.38,0,.85.28,1a1.08,1.08,0,0,0,.49.11c1.9.12,4,.19,5.49-.95a6,6,0,0,0,1.23-1.33,11.75,11.75,0,0,0,1.87-4.1"/><path class="cls-4" d="M167.1,61.16c-3.67-3.77-7.44-7.7-9.26-12.64-.65-1.77-1-3.62-1.73-5.38a8.77,8.77,0,0,0-3.33-4.44c-10.54-6.44-24.67-2-37-1.47a4.51,4.51,0,0,0-2.12.45,1.55,1.55,0,0,0-.75,1.85,2.72,2.72,0,0,0,1,.95c2.54,1.84,3.44,5.15,5.2,7.75.89,1.31,2,2.44,3,3.67A43.62,43.62,0,0,1,125,56.19L130.4,65a6.88,6.88,0,0,1,1.29,3.19,8.38,8.38,0,0,1-.53,2.63,37.47,37.47,0,0,0-1,9.44c-.08,3.2-.16,6.48.82,9.53,1.35,4.22,4.55,7.55,7.65,10.72,2.39-1.75,4.86-3.57,6.34-6.14,1-1.69,1.47-3.63,2.48-5.3,1.17-1.94,3-3.4,4.55-5a54.84,54.84,0,0,0,4.52-5.59l5.87-7.94C164.7,67.29,167.62,65.11,167.1,61.16Z"/><path class="cls-1" d="M217,76.4c1.17.84,1.27,2.51,1.27,3.95a3.72,3.72,0,0,1-.16,1.31,3.58,3.58,0,0,1-1.68,1.63,37.55,37.55,0,0,1-5.55,2.7c-.34-.35,0-.91.2-1.34a9.18,9.18,0,0,0,.6-3.56C211.93,78.44,213.51,73.86,217,76.4Z"/><path class="cls-3" d="M140,36.8c3.89,5.54,4.82,12.67,8.29,18.47,2.76,4.62,7.13,8.43,8.39,13.66"/><text class="cls-5" transform="translate(295.22 279.42) scale(0.82 1)">1 0 0 1 0 <tspan x="0" y="29.16">0 1 0 1 1 </tspan><tspan x="0" y="58.33">0 1 1 0 0 </tspan></text><rect class="cls-6" x="440.49" y="391.34" width="69.13" height="19.61"/><rect class="cls-7" x="356.39" y="229.18" width="236.14" height="170.78" rx="6" ry="6"/><rect class="cls-8" x="371.09" y="242.91" width="208.22" height="142.01"/><rect class="cls-9" x="394.87" y="406.8" width="163.92" height="11.99"/><rect class="cls-10" x="383.47" y="250.65" width="181.74" height="58.71"/><rect class="cls-10" x="383.47" y="362.53" width="181.74" height="12.13"/><rect class="cls-10" x="383.47" y="316.31" width="181.74" height="12.13"/><rect class="cls-10" x="476.83" y="346.4" width="88.38" height="10.08"/><rect class="cls-10" x="476.83" y="335.12" width="88.38" height="10.08"/><rect class="cls-10" x="383.47" y="335.12" width="90.99" height="21.37"/><polygon class="cls-11" points="56.84 158.98 97.67 158.98 97.67 227.26 105.7 227.26 105.7 417.27 49.47 417.27 49.47 227.26 56.84 226.59 56.84 158.98"/><polygon class="cls-12" points="111.06 133.55 125.11 133.55 125.11 158.98 140.88 158.98 140.88 218.66 140.88 417.27 105.7 417.27 97.67 158.98 111.06 158.98 111.06 133.55"/><polygon class="cls-13" points="173.31 218.66 131.14 218.66 131.14 417.27 177.99 417.27 173.31 218.66"/><polygon class="cls-14" points="218.16 202.31 218.16 152.62 274.05 152.62 274.05 417.27 230.21 417.27 218.16 202.31"/><polygon class="cls-15" points="182.68 174.38 206.78 174.38 206.78 202.31 222.17 202.31 222.17 282.82 234.22 282.82 234.22 417.27 157.24 417.27 157.24 284.16 165.94 284.16 166.61 202.31 182.68 202.31 182.68 174.38"/><polygon class="cls-16" points="126.45 233.28 135.15 233.28 135.15 246 145.86 246 145.86 292.29 151.89 292.29 150.55 417.27 111.39 417.27 111.39 291.86 117.41 291.52 116.75 246.67 125.78 246.67 126.45 233.28"/><rect class="cls-17" x="62.52" y="166.35" width="10.04" height="14.06"/><rect class="cls-17" x="81.94" y="166.35" width="10.04" height="14.06"/><rect class="cls-17" x="62.52" y="188.1" width="10.04" height="13.72"/><rect class="cls-17" x="81.94" y="188.1" width="10.04" height="13.72"/><rect class="cls-17" x="62.52" y="209.52" width="10.04" height="14.73"/><rect class="cls-17" x="81.94" y="209.52" width="10.04" height="14.73"/><rect class="cls-17" x="53.49" y="233.28" width="9.04" height="14.39"/><rect class="cls-17" x="72.57" y="233.28" width="9.37" height="14.39"/><rect class="cls-17" x="91.98" y="233.28" width="9.71" height="14.39"/><rect class="cls-17" x="53.49" y="257.34" width="9.04" height="13.43"/><rect class="cls-17" x="72.57" y="257.34" width="9.37" height="13.43"/><rect class="cls-17" x="91.98" y="257.34" width="9.17" height="13.43"/><rect class="cls-17" x="53.49" y="280.15" width="9.04" height="15.68"/><rect class="cls-17" x="72.57" y="280.15" width="9.37" height="15.68"/><rect class="cls-17" x="91.98" y="280.15" width="9.17" height="15.68"/><rect class="cls-17" x="53.49" y="304.24" width="9.04" height="15.06"/><rect class="cls-17" x="72.57" y="304.24" width="9.37" height="15.06"/><rect class="cls-17" x="91.98" y="304.24" width="9.71" height="15.06"/><rect class="cls-17" x="53.49" y="325.28" width="9.04" height="15.44"/><rect class="cls-17" x="71.23" y="325.28" width="10.71" height="15.44"/><rect class="cls-17" x="91.98" y="325.28" width="9.71" height="15.44"/><rect class="cls-17" x="53.49" y="346.75" width="9.04" height="15.4"/><rect class="cls-17" x="71.23" y="348.08" width="10.71" height="14.06"/><rect class="cls-17" x="91.98" y="348.08" width="9.71" height="15.06"/><rect class="cls-17" x="53.49" y="369.51" width="9.04" height="14.39"/><rect class="cls-17" x="71.23" y="370.84" width="13.05" height="13.05"/><rect class="cls-17" x="91.98" y="370.84" width="9.71" height="13.05"/><rect class="cls-17" x="67.54" y="390.59" width="22.42" height="26.68"/><rect class="cls-17" x="120.76" y="250.69" width="7.03" height="10.38"/><rect class="cls-17" x="133.14" y="250.69" width="7.74" height="10.38"/><rect class="cls-17" x="120.76" y="265.42" width="7.03" height="9.99"/><rect class="cls-17" x="133.14" y="265.42" width="7.74" height="9.99"/><rect class="cls-17" x="120.76" y="280.15" width="7.03" height="9.36"/><rect class="cls-17" x="133.14" y="279.14" width="7.74" height="10.38"/><rect class="cls-17" x="115.07" y="295.83" width="5.69" height="9.75"/><rect class="cls-17" x="126.45" y="295.83" width="6.69" height="9.75"/><rect class="cls-17" x="139.17" y="295.83" width="7.89" height="7.89"/><rect class="cls-17" x="115.07" y="311.77" width="5.69" height="7.53"/><rect class="cls-17" x="127.79" y="311.77" width="5.36" height="9.2"/><rect class="cls-17" x="139.17" y="311.77" width="7.89" height="7.89"/><rect class="cls-17" x="115.07" y="327.67" width="5.69" height="9.04"/><rect class="cls-17" x="126.45" y="327.67" width="9.04" height="9.04"/><rect class="cls-17" x="140.88" y="325.28" width="6.18" height="11.43"/><rect class="cls-17" x="115.07" y="340.72" width="5.69" height="11.71"/><rect class="cls-17" x="127.79" y="342.39" width="7.7" height="10.04"/><rect class="cls-17" x="139.17" y="342.39" width="7.89" height="7.89"/><rect class="cls-17" x="115.07" y="358.46" width="5.69" height="9.37"/><rect class="cls-17" x="127.79" y="357.12" width="7.7" height="10.71"/><rect class="cls-17" x="139.17" y="357.12" width="7.89" height="10.71"/><rect class="cls-17" x="139.6" y="372.18" width="7.46" height="7.46"/><rect class="cls-17" x="127.79" y="372.18" width="5.36" height="8.7"/><rect class="cls-17" x="115.07" y="372.18" width="5.69" height="8.7"/><rect class="cls-17" x="115.07" y="385.57" width="5.69" height="9.04"/><rect class="cls-17" x="126.45" y="385.57" width="9.04" height="9.04"/><rect class="cls-17" x="140.88" y="385.57" width="6.18" height="9.04"/><rect class="cls-17" x="171.63" y="206.84" width="8.7" height="14.39"/><rect class="cls-17" x="191.38" y="206.84" width="9.71" height="14.39"/><rect class="cls-17" x="207.78" y="206.84" width="10.38" height="14.39"/><rect class="cls-17" x="171.63" y="233.28" width="10.71" height="13.05"/><rect class="cls-17" x="191.38" y="233.28" width="8.37" height="13.05"/><rect class="cls-17" x="207.78" y="231.61" width="10.38" height="14.73"/><rect class="cls-17" x="207.78" y="255.88" width="10.38" height="14.89"/><rect class="cls-17" x="191.38" y="257.34" width="8.37" height="13.07"/><rect class="cls-17" x="171.63" y="255.88" width="8.7" height="14.89"/><rect class="cls-17" x="162.6" y="289.51" width="9.04" height="14.73"/><rect class="cls-17" x="180.34" y="289.51" width="11.04" height="14.2"/><rect class="cls-17" x="199.75" y="289.51" width="8.03" height="14.2"/><rect class="cls-17" x="218.16" y="289.51" width="9.37" height="14.2"/><rect class="cls-17" x="162.6" y="311.77" width="9.04" height="13.51"/><rect class="cls-17" x="182.34" y="311.77" width="8.03" height="13.51"/><rect class="cls-17" x="199.75" y="311.77" width="8.03" height="12.22"/><rect class="cls-17" x="216.48" y="311.77" width="12.22" height="12.22"/><rect class="cls-17" x="162.6" y="335.37" width="9.04" height="12.72"/><rect class="cls-17" x="182.34" y="335.37" width="8.03" height="12.05"/><rect class="cls-17" x="199.75" y="335.37" width="8.03" height="14.92"/><rect class="cls-17" x="218.16" y="336.71" width="8.17" height="11.38"/><rect class="cls-17" x="162.6" y="357.12" width="9.04" height="13.72"/><rect class="cls-17" x="180.34" y="357.12" width="11.04" height="11.04"/><rect class="cls-17" x="198.41" y="357.12" width="9.37" height="13.72"/><rect class="cls-17" x="216.48" y="358.46" width="9.84" height="13.72"/><rect class="cls-17" x="216.48" y="376.53" width="9.84" height="13.56"/><rect class="cls-17" x="198.41" y="377.37" width="9.37" height="13.22"/><rect class="cls-17" x="180.34" y="376.53" width="10.04" height="14.06"/><rect class="cls-17" x="160.48" y="376.53" width="8.88" height="13.5"/><rect class="cls-17" x="185.94" y="396.52" width="17.6" height="20.75"/><path class="cls-18" d="M411.1,145.26a8.05,8.05,0,0,0,2.54,5.14,4.59,4.59,0,0,0,5.43.47,4.81,4.81,0,0,0,1.71-4.46,11.28,11.28,0,0,0-1.87-4.6,7,7,0,0,0-1.56-1.89,4,4,0,0,0-5.2.5c-1.55,1.75-1.19,4.46-.48,6.69"/><path class="cls-19" d="M567,211.95l-8.7-6.58c-14.45-10.91-28.9-21.83-43.07-33.1l-6.4-5.12C498.56,159,488.43,151.52,478.5,143l-9.67-8.34c-2.5-2.15-5.12-4.37-8.32-5.19a58.31,58.31,0,0,0-5.87-.73c-2-.29-2.85-1.47-4-3.07,8.75-5,17.06-10.79,26-15.4,14.1-7.25,29.79-11.58,42.65-20.86L501,103.85c-1.21,1-2.51,2-2.8,3.57s.45,2.89,1.16,4.18a237.47,237.47,0,0,0,26,37.13c4,4.79,8,9.57,12.16,14.25,3.55,4,7.25,7.85,11,11.69,3.36,3.49,5.5,8,8.6,11.85,3.34,4.13,7.41,7.71,10.06,12.31S570.16,207.71,567,211.95Z"/><path class="cls-20" d="M459.25,125.08c1,2.23,1.55,4.91.3,7a8.89,8.89,0,0,1-3.26,2.8,150.31,150.31,0,0,1-35.7,15.51c.32-5-3-8.92-7.33-10.81,4.23-3.69,9.14-6.59,13.31-10.39,2.49-2.27,4.65-5,7.55-6.74,4.22-2.59,9.43-3.38,14.16-4.53C454.55,116.4,456.74,119.21,459.25,125.08Z"/><path class="cls-20" d="M375.71,64.47c2.8,1.11,5.51,2.45,8.33,3.51a93.18,93.18,0,0,0,10.66,3.08c17.41,4.28,34.83,8.57,52.53,11.47,5.15.84,10.82,1.84,14.13,5.88-6.6,5.62-15.8,7.2-22.84,12.25-2.41,1.73-4.6,3.87-7.36,4.95-5.61,2.18-11.81-.58-17.18-3.29q-35.29-17.8-70.41-35.92l-9.77-5c-2.84-1.46-14.35-6.12-14.66-9.81-.28-3.35,5.6-3.53,7.74-2.87,5,1.52,9.45,5.28,14.58,6.95a158.7,158.7,0,0,0,16.55,4A107.87,107.87,0,0,1,375.71,64.47Z"/><path class="cls-19" d="M418.3,98.25c2.16-.68,4.55-1.15,6.66-.34s3.45,2.61,4.63,4.44a7.81,7.81,0,0,1,1.52,3.76,5.72,5.72,0,0,1-2,4.28A17,17,0,0,1,425,113l-7.2,3.58a14.94,14.94,0,0,1-5.65,1.92,9.86,9.86,0,0,1-3.49-.5c-3.65-1.14-10.69-6.11-8.39-10.1,1.21-2.1,6.57-4.29,8.69-5.47A50.26,50.26,0,0,1,418.3,98.25Z"/><path class="cls-21" d="M374.71,120.38l4.6,10.47a7.07,7.07,0,0,0,4.4,4.67c3.94,1.91,8.19,3.87,12.52,3.2s7.63-3.66,10.69-6.63a214,214,0,0,0,16.28-17.69,2.45,2.45,0,0,0,.66-1.21c.1-.92-.87-1.64-1.79-1.71a9.36,9.36,0,0,0-2.71.52,13.84,13.84,0,0,1-5.79-.23c-11.12-2.2-21.31-7.28-32.05-10.7C367.23,96.52,371.14,112.27,374.71,120.38Z"/><path class="cls-19" d="M346.21,109.51A151.81,151.81,0,0,1,369.78,96.7c6.89,9.22,13.49,19.84,12.59,31.31a10,10,0,0,1-1.13,4.3c-2.53,4.34-9,4.14-12.84,7.41q-7.69-9.6-15.1-19.42c-3-4-5.72-9.3-10.23-11.86-11.55-6.57-26.32-9.75-39.45-10.44a7.67,7.67,0,0,1-3.58-.76c-5-3,5-7.12,7.29-7.9,4.07-1.41,8.44-.27,12.6.27q17.58,2.25,35.07,5.13A9,9,0,0,1,358.78,96a3.1,3.1,0,0,1,1.34,3.46,4.54,4.54,0,0,1-1.51,1.73L353.89,105a15.93,15.93,0,0,1-5,3.12,8.81,8.81,0,0,1-2.79.41"/><path class="cls-22" d="M393.08,137.86c3.13,2.6,7.43,3.46,11.5,3.16a45.26,45.26,0,0,0,11.8-3,550.83,550.83,0,0,0,75.54-33.71c4.18-2.26,8.33-4.57,12.48-6.88,17.66-9.83,35.34-19.67,52.13-30.92,2.45-1.64,5-3.41,6.4-6s1.4-6.22-.87-8.12c-1.82-1.52-4.43-1.51-6.79-1.42l-8.94.33c-1.13-3-5-3.23-8.14-2.61C522.51,51.77,508.11,59.32,494,66.77l-20.81,11c-24.85,13.1-49.76,26.23-72.91,42.15-3.12,2.15-6.42,4.64-7.41,8.3S393.8,134.12,393.08,137.86Z"/><path class="cls-23" d="M349.45,103.9l-18.73,13.57c-1.3.94-2.71,2.77-1.57,3.9,1.7,1.69,20.67-9.25,23-10.54,6.72-3.8,13.52-8.22,19.76-12.57a1.26,1.26,0,0,0,.61-.74,1.29,1.29,0,0,0-.13-.68,5.87,5.87,0,0,0-1.49-2.48c-1.28-1.07-3.94-.61-5.39-.13C359.73,96.15,354.27,100.4,349.45,103.9Z"/></g></svg>