<svg xmlns="http://www.w3.org/2000/svg" viewBox="0 0 343.52 426.15"><defs><style>.cls-1{fill:#52a7c9;}.cls-2{fill:#f1c27c;}.cls-3{fill:#36798e;}.cls-4{fill:#efa435;}.cls-5,.cls-6{fill:none;stroke-miterlimit:10;}.cls-5{stroke:#36798e;}.cls-6{stroke:#c9a16b;}</style></defs><title>Artboard 16</title><g id="Layer_2" data-name="Layer 2"><path class="cls-1" d="M264.33,282.65c8.1,4.2,8.93,15.41,8.67,24.64l-.6,21.54c-.29,10.27-.65,20.89-5,30.17s-13.81,16.91-23.86,15.68c-4.09-.5-8-2.4-12.11-2.4-6,0-11.23,4-16.23,7.44a115,115,0,0,1-31.51,15.22c-3.74,1.14-8.2,2-11.21-.57-1.86-1.56-2.67-4-3.39-6.38-1.49-4.86-2.6-10.11-4.55-14.8-2.64-6.36-2.64-4.9-9.48-5-10-.1-19.77-3.21-29.52-5.2-12.49-2.54-26.77-3-36.53,5.35-2.61,2.22-4.77,5-7.58,7-7.41,5.2-17.71,3.7-25.68-.57-12.11-6.49-20.51-18.19-28.47-29.49-3-4.23-5.9-10.32-2.42-14.13,1.86-2,4.85-2.42,7.58-2.45,9.85-.12,19.47,2.7,28.92,5.49-3.14-9.92,1.5-21.78,10.49-26.82,7.08-4,15.76-3.74,23.62-1.85s15.29,5.31,23.07,7.53c4.92,1.4,10.22,2.3,15.1.78s9.16-6.1,8.88-11.29c8.35-12.4,15.62-23.73,15.7-38.75.06-10.8-4.37-21-7.81-31.22a177.49,177.49,0,0,1-7.54-31.9c-.89-6.31-1.26-13.36,2.57-18.42,4.71-6.23,13.87-6.8,21.37-4.87s14.57,5.76,22.28,6.41c13.9,1.17,26.38-8,39.87-11.64,6.77-1.81,14.7-2,20,2.66,5.66,4.9,6.51,13.58,4.91,21a41.68,41.68,0,0,1-8.83,18c-1.78,2.11-3.89,5.05-2.33,7.34.77,1.13,2.18,1.56,3.38,2.19,4.84,2.53,6.66,8.49,8,13.84C258.23,253.12,260.27,266.65,264.33,282.65Z"/><path class="cls-2" d="M274.13,202.72C285,214,292.36,229.2,292.42,245s-8,31.82-21.67,39.27c-7.89,4.3-17,5.59-25.94,6.29a231.86,231.86,0,0,1-50.85-1.6c-4.84-.69-10.65-2.43-11.71-7.27-.89-4.06,2.44-8,6.28-9.47s8.07-1.07,12.16-1.06a65.51,65.51,0,0,0,40.25-14c4.13-3.25,8.18-7.83,7.57-13.1-.3-2.53-1.65-4.78-2.91-7-4.49-7.85-8.23-16.55-8-25.63.19-7.57,4.61-18.49,12.43-21.18C258.3,187.41,268.73,197.08,274.13,202.72Z"/><path class="cls-2" d="M138.3,92.87c-.79,10.36-1.59,20.75-1.33,31.14.07,2.62.18,5.36-.92,7.74s-3.43,4.2-5,6.46c-4.38,6.52-1.38,15.34,2,22.45,1.54,3.25,3.18,6.53,5.74,9,2.93,2.88,6.82,4.49,10.61,6,9.54,3.89,19.17,7.81,29.3,9.58,26.59,4.65,53.68-6,76.3-20.94,5-3.27,9.84-6.81,13.58-11.46,5.66-7.05,8.26-16.13,9.81-25.09,3.72-21.48,2.09-44.16-6.46-64.16a56.42,56.42,0,0,0-6.89-12.26c-5.43-7.07-13-12.06-20.81-16.33C224,23.92,199.32,16.73,178.16,25.95c-10.47,4.56-21.91,11.67-28.4,21.42C141.26,60.18,139.44,77.91,138.3,92.87Z"/><path class="cls-2" d="M269.17,116.07a23,23,0,0,1,22.25-6.29,5.6,5.6,0,0,1,2.65,1.34,6.37,6.37,0,0,1,1.35,3.26c1.48,7.35,2,15.52-2.07,21.81-2.94,4.59-8,7.5-13.16,8.92s-10.67,1.5-16.07,1.5"/><path class="cls-3" d="M227.21,217.75a2.44,2.44,0,0,0,.19,1.3c.38.68,1.29.81,1.94,1.24,1,.65,1.34,1.94,2.16,2.79,1.5,1.53,4.19,1.11,5.78-.33s2.36-3.56,3.06-5.6c1.77-5.15,3.53-10.38,6.46-15s7.23-8.5,12.46-9.77c.62-4.88-2.38-9.68-6.43-12.37-6.5-4.32-22.21-8.48-24.45,1.24C225.86,192.21,227.67,206.45,227.21,217.75Z"/><path class="cls-2" d="M90.42,222.1c-6.09,6.33-10.56,14.78-10.3,23.62.16,5.61,2.18,11,4.18,16.19,2.13,5.59,4.62,11.62,9.78,14.55,3.66,2.08,8,2.21,12.23,2.24,6.57.05,13.27,0,19.47-2.25s11.89-6.89,13.68-13.31c2.9-10.4-5-21.6-2.05-32,1.09-3.85,3.57-7.11,5.51-10.59,2.79-5,8-17.41,5-23.18-2.6-5-11.56-3.86-16.35-2.16C118,200.08,100.5,211.62,90.42,222.1Z"/><path class="cls-4" d="M113.36,275.4c1.47,4.55,4.14,8.59,6.87,12.51,4.37,6.28,9.19,12.59,15.86,16.23,8.76,4.78,19.29,4.24,29.22,3.58,5-.33,10.08-.69,14.64-2.74,10.88-4.88,15.72-17.66,18.69-29.35,2.65-10.43,4.6-21.92,0-31.61-3.44-7.2-10.13-12.37-17.39-15.51-12.86-5.55-38.14-12.86-49-.72C121.14,240.14,107.63,257.67,113.36,275.4Z"/><path class="cls-3" d="M139.9,185c-2.8,1.29-5.93,3-6.63,6-.95,4.12,3.08,7.48,4.9,11.29,3.15,6.59-.52,14.41.1,21.71a104,104,0,0,0,13.11-12.22c3.69-3.87,7.46-7.89,9.44-12.89,1.92-4.84,4.82-17.85-1.31-20.16C154.51,176.82,144.22,183,139.9,185Z"/><path class="cls-5" d="M251.37,326.43c-4.75-4.77-9.65-9.65-15.76-12.39s-13.81-2.93-19,1.33a26.12,26.12,0,0,0-4.75,5.6c-6.67,9.68-12.74,20.86-11.61,32.62-1-10.64-5.56-24.83-18.45-24-3.48.23-11.08,2.62-12.91,5.3-3.16,4.64-2.55,17.62-2.66,23.17a165.1,165.1,0,0,0,1.47,21.67"/><path class="cls-6" d="M105.69,246c-.34,2.75,1.73,4.85,3.53,6.24l2.71,2.1"/></g></svg>