<svg xmlns="http://www.w3.org/2000/svg" viewBox="0 0 615.94 482"><defs><style>.cls-1{fill:#747776;}.cls-2{fill:#90c4a0;}.cls-3{fill:#c2c2c2;}.cls-4{fill:#999;}.cls-5{fill:#8c6338;}.cls-6{fill:#a1a3a2;}.cls-7{fill:#353535;}.cls-8{fill:#333534;}.cls-9{fill:#88623a;}.cls-10{fill:#090a0a;}.cls-11{fill:#2c2c2c;}.cls-12{fill:#c2af96;}.cls-13{fill:#343233;}.cls-14,.cls-18,.cls-36,.cls-41,.cls-42,.cls-43,.cls-45,.cls-48{fill:none;}.cls-14{stroke:#5e5f5f;stroke-width:0.25px;}.cls-14,.cls-18,.cls-19,.cls-36,.cls-41,.cls-42,.cls-43,.cls-44,.cls-45,.cls-48,.cls-49{stroke-miterlimit:10;}.cls-15{fill:#b79372;}.cls-16{fill:#8c6a41;}.cls-17{fill:#65696c;}.cls-18{stroke:#c4b19d;}.cls-18,.cls-45{stroke-width:2px;}.cls-19{fill:#f4f4f4;stroke:#0e0d0b;}.cls-20{fill:#dcdddf;}.cls-21{fill:#414242;}.cls-22{fill:#010101;}.cls-23{fill:#f3d7c5;}.cls-24{fill:#ffda7f;}.cls-25{fill:#b7a9a8;}.cls-26{fill:#f16a82;}.cls-27{fill:#f2c7a2;}.cls-28{fill:#4785b0;}.cls-29{fill:#746153;}.cls-30{fill:#5da293;}.cls-31{fill:#e7d7bd;}.cls-32{fill:#e16556;}.cls-33{fill:#f6d6c7;}.cls-34{fill:#766153;}.cls-35{fill:#7d8786;}.cls-36{stroke:#829da8;}.cls-37{fill:#e7d6c2;}.cls-38{fill:#feda82;}.cls-39{fill:#5f9da8;}.cls-40{fill:#cec1b8;}.cls-41{stroke:#947c7c;}.cls-42,.cls-44,.cls-45,.cls-49{stroke:#695d5d;}.cls-43{stroke:#716262;}.cls-44{fill:#877573;}.cls-46{fill:#b7b6b6;}.cls-47{fill:#504e4d;}.cls-48{stroke:#070808;}.cls-49{fill:#ad9889;}</style></defs><title>Artboard 17</title><g id="Layer_2" data-name="Layer 2"><rect class="cls-1" x="418.89" y="55.43" width="165.67" height="104.26" rx="6" ry="6"/><rect class="cls-2" x="429.21" y="63.33" width="146.08" height="81.8"/><polygon class="cls-3" points="419.38 152.47 394.63 194.4 608.76 194.4 585.04 152.47 419.38 152.47"/><path class="cls-4" d="M394.15,194.28s-.34,4.12,3.44,4.12h207.6s8.08-4.12,3.09-4.12Z"/><polygon class="cls-4" points="427.72 159.11 431.38 159.11 430.35 163.92 426.11 163.92 427.72 159.11"/><polygon class="cls-4" points="433.44 159.68 437.57 159.68 436.54 163.92 432.18 163.92 433.44 159.68"/><polygon class="cls-4" points="439.63 159.68 438.49 163.92 441.69 163.92 443.3 159.68 439.63 159.68"/><polygon class="cls-4" points="444.56 160.49 444.56 163.92 448.11 163.92 449.48 159.68 445.25 159.11 444.56 160.49"/><polygon class="cls-4" points="451.09 159.68 450.29 163.92 454.18 163.92 455.33 159.68 451.09 159.68"/><polygon class="cls-4" points="457.05 159.68 456.47 163.92 460.14 163.92 460.94 159.68 457.05 159.68"/><polygon class="cls-4" points="462.89 159.68 461.86 163.92 467.01 163.92 467.01 159.11 462.89 159.68"/><polygon class="cls-4" points="469.65 159.68 468.85 163.92 472.17 163.92 472.74 159.68 469.65 159.68"/><polygon class="cls-4" points="474.23 159.68 474.23 163.92 478.93 163.92 478.93 160.03 474.23 159.68"/><rect class="cls-4" x="480.42" y="159.68" width="4.35" height="4.24"/><rect class="cls-4" x="486.03" y="159.11" width="4.24" height="4.81"/><rect class="cls-4" x="492.68" y="159.68" width="4.35" height="4.24"/><rect class="cls-4" x="498.18" y="159.68" width="4.07" height="4.24"/><polygon class="cls-4" points="504.48 159.11 504.48 163.24 508.72 163.24 508.72 159.68 504.48 159.11"/><rect class="cls-4" x="510.21" y="159.68" width="4.58" height="4.24"/><polygon class="cls-4" points="516.39 159.68 516.39 163.92 520.86 163.92 519.49 159.68 516.39 159.68"/><polygon class="cls-4" points="522.35 159.68 522.35 163.92 526.59 163.92 526.02 159.11 522.35 159.68"/><polygon class="cls-4" points="527.96 159.68 527.96 163.92 533.23 163.92 531.75 159.68 527.96 159.68"/><polygon class="cls-4" points="534.26 159.68 534.26 163.92 538.85 163.92 537.59 159.68 534.26 159.68"/><polygon class="cls-4" points="539.31 159.68 540.57 163.92 544.46 163.92 543.2 159.68 539.31 159.68"/><polygon class="cls-4" points="545.72 159.68 545.72 163.92 551.11 163.92 549.27 159.11 545.72 159.68"/><polygon class="cls-4" points="551.11 159.68 553.17 163.92 557.07 163.92 554.66 159.68 551.11 159.68"/><polygon class="cls-4" points="557.07 159.68 558.44 163.92 563.25 163.92 560.62 159.68 557.07 159.68"/><polygon class="cls-4" points="562.22 159.68 564.51 163.92 568.98 163.92 566.8 159.68 562.22 159.68"/><polygon class="cls-4" points="567.95 159.68 571.16 163.92 575.28 163.92 572.53 159.68 567.95 159.68"/><polygon class="cls-4" points="424.62 165.76 435.74 166.33 434.02 171.37 422.79 171.37 424.62 165.76"/><polygon class="cls-4" points="437.57 165.76 441.35 165.76 439.98 171.37 435.74 170.8 437.57 165.76"/><polygon class="cls-4" points="443.3 165.76 441.81 171.37 446.28 171.37 447.42 165.76 443.3 165.76"/><polygon class="cls-4" points="449.48 165.76 448.34 171.37 452.12 171.37 453.61 166.33 449.48 165.76"/><polygon class="cls-4" points="459.57 166.33 459.57 171.37 454.18 170.91 455.33 166.33 459.57 166.33"/><polygon class="cls-4" points="461.4 166.33 460.94 171.37 465.64 171.37 466.33 166.33 461.4 166.33"/><rect class="cls-4" x="467.59" y="166.33" width="4.24" height="4.58"/><path class="cls-4" d="M474.23,165.76l-.57,5.16s6.24-.06,5.27,0-1.26-5.16-1.26-5.16Z"/><polygon class="cls-4" points="480.42 166.33 479.96 170.91 483.86 170.91 483.86 166.33 480.42 166.33"/><rect class="cls-4" x="486.03" y="166.33" width="4.24" height="4.58"/><polygon class="cls-4" points="492.68 166.33 492.68 170.91 497.03 170.91 497.03 165.76 492.68 166.33"/><rect class="cls-4" x="498.63" y="166.33" width="4.47" height="4.58"/><polygon class="cls-4" points="504.48 166.33 504.94 170.91 508.72 170.91 508.72 166.33 504.48 166.33"/><polygon class="cls-4" points="510.66 166.33 510.66 170.91 515.59 170.91 515.59 167.02 510.66 166.33"/><polygon class="cls-4" points="517.31 166.33 517.77 170.91 521.66 170.91 520.86 166.33 517.31 166.33"/><polygon class="cls-4" points="523.15 166.33 523.84 171.37 527.96 170.91 526.59 165.76 523.15 166.33"/><polygon class="cls-4" points="528.72 167.02 528.72 171.26 533.99 171.26 532.5 167.02 528.72 167.02"/><polygon class="cls-4" points="535.02 167.02 535.02 171.26 539.6 171.26 538.34 167.02 535.02 167.02"/><polygon class="cls-4" points="540.06 167.02 541.32 171.26 545.21 171.26 543.95 167.02 540.06 167.02"/><polygon class="cls-4" points="546.48 167.02 546.48 171.26 551.86 171.26 550.03 166.44 546.48 167.02"/><polygon class="cls-4" points="551.86 167.02 553.92 171.26 557.82 171.26 555.41 167.02 551.86 167.02"/><polygon class="cls-4" points="557.82 167.02 559.19 171.26 564 171.26 561.37 167.02 557.82 167.02"/><polygon class="cls-4" points="562.97 167.02 565.26 171.26 569.73 171.26 567.55 167.02 562.97 167.02"/><polygon class="cls-4" points="423.22 172.75 434.33 173.32 432.61 178.36 421.38 178.36 423.22 172.75"/><polygon class="cls-4" points="436.16 172.75 439.94 172.75 438.57 178.36 434.33 177.79 436.16 172.75"/><polygon class="cls-4" points="441.89 172.75 440.4 178.36 444.87 178.36 446.01 172.75 441.89 172.75"/><polygon class="cls-4" points="448.08 172.75 446.93 178.36 450.71 178.36 452.2 173.32 448.08 172.75"/><polygon class="cls-4" points="458.16 173.32 458.16 178.36 452.77 177.9 453.92 173.32 458.16 173.32"/><polygon class="cls-4" points="459.99 173.32 459.53 178.36 464.23 178.36 464.92 173.32 459.99 173.32"/><rect class="cls-4" x="466.18" y="173.32" width="4.24" height="4.58"/><path class="cls-4" d="M472.82,172.75l-.57,5.16s6.24-.06,5.27,0-1.26-5.16-1.26-5.16Z"/><polygon class="cls-4" points="479.01 173.32 478.55 177.9 482.45 177.9 482.45 173.32 479.01 173.32"/><rect class="cls-4" x="484.62" y="173.32" width="4.24" height="4.58"/><polygon class="cls-4" points="491.27 173.32 491.27 177.9 495.62 177.9 495.62 172.75 491.27 173.32"/><rect class="cls-4" x="497.23" y="173.32" width="4.47" height="4.58"/><polygon class="cls-4" points="503.07 173.32 503.53 177.9 507.31 177.9 507.31 173.32 503.07 173.32"/><polygon class="cls-4" points="509.26 173.32 509.26 177.9 514.18 177.9 514.18 174 509.26 173.32"/><polygon class="cls-4" points="515.9 173.32 516.36 177.9 520.26 177.9 519.45 173.32 515.9 173.32"/><polygon class="cls-4" points="523.12 173.32 523.81 178.36 527.93 177.9 526.56 172.75 523.12 173.32"/><polygon class="cls-4" points="530.06 174 530.06 178.24 535.33 178.24 533.84 174 530.06 174"/><polygon class="cls-4" points="536.36 174 536.36 178.24 540.94 178.24 539.68 174 536.36 174"/><polygon class="cls-4" points="541.4 174 542.66 178.24 546.56 178.24 545.3 174 541.4 174"/><polygon class="cls-4" points="547.82 174 547.82 178.24 553.2 178.24 551.37 173.43 547.82 174"/><polygon class="cls-4" points="553.2 174 555.26 178.24 559.16 178.24 556.75 174 553.2 174"/><polygon class="cls-4" points="559.16 174 560.53 178.24 565.35 178.24 562.71 174 559.16 174"/><polygon class="cls-4" points="564.32 174 566.61 178.24 571.08 178.24 568.9 174 564.32 174"/><polygon class="cls-4" points="572.4 167.79 571.86 177.7 578.7 177.36 576.07 167.79 572.4 167.79"/><polygon class="cls-4" points="545.15 180.31 546.41 184.55 550.31 184.55 549.05 180.31 545.15 180.31"/><polygon class="cls-4" points="551.57 180.31 551.57 184.55 556.96 184.55 555.12 179.73 551.57 180.31"/><polygon class="cls-4" points="556.96 180.31 559.02 184.55 562.91 184.55 560.51 180.31 556.96 180.31"/><polygon class="cls-4" points="562.91 180.31 564.29 184.55 569.1 184.55 566.46 180.31 562.91 180.31"/><polygon class="cls-4" points="568.07 180.31 570.36 184.55 574.83 184.55 572.65 180.31 568.07 180.31"/><polygon class="cls-4" points="573.8 180.31 577 184.55 581.13 184.55 578.38 180.31 573.8 180.31"/><polygon class="cls-4" points="421.95 181.34 423.22 185.58 427.11 185.58 425.85 181.34 421.95 181.34"/><polygon class="cls-4" points="428.37 181.34 428.37 185.58 433.76 185.58 431.92 180.76 428.37 181.34"/><polygon class="cls-4" points="433.76 181.34 435.82 185.58 439.71 185.58 437.31 181.34 433.76 181.34"/><polygon class="cls-4" points="439.71 181.34 441.09 185.58 445.9 185.58 443.26 181.34 439.71 181.34"/><polygon class="cls-4" points="444.87 181.34 447.16 185.58 451.63 185.58 449.45 181.34 444.87 181.34"/><polygon class="cls-4" points="450.6 181.34 453.81 185.58 457.93 185.58 455.18 181.34 450.6 181.34"/><polygon class="cls-4" points="458.71 181.34 541.4 181.34 541.88 185.58 457.93 185.58 458.71 181.34"/><path class="cls-5" d="M378.2,314.2c-2.44-1.17-5.5.56-6.67,3s-1,5.31-.57,8c.49,3.48,1.35,7.19,4,9.54s7.5,2.38,9.1-.75a13,13,0,0,0,4,9.84c1.48,1.4,3.28,2.43,4.87,3.71a27.38,27.38,0,0,1,6.48,8.17,35.21,35.21,0,0,1,4.72,15.42,22.49,22.49,0,0,1-4.71,15.2c-3.22,3.92-7.88,6.36-12.53,8.38a112.92,112.92,0,0,1-35.63,9,28,28,0,0,1-9.53-.44c-4.76-1.27-8.69-4.68-11.84-8.47a29.8,29.8,0,0,1-4.2-6.4c-3.52-7.57-2.35-16.57.67-24.35,1.07-2.76,2.37-5.48,2.76-8.41s-.33-6.22-2.65-8.06c1.28,1.46,2.62,1.73,4.55,1.6a6.44,6.44,0,0,0,4.86-2.81,9.65,9.65,0,0,0,1.37-4.85,19.88,19.88,0,0,0-3.38-12.17,9.72,9.72,0,0,0-4.92-4.09c-2.08-.63-4.66,0-5.7,2,2.1-2,1.51-4.76.33-7.41s-3.14-4.87-4.34-7.5a13.46,13.46,0,0,1-1.18-4.65,5.57,5.57,0,0,1-1.21-3.73,41.85,41.85,0,0,1,1.32-11.15c.73-2.84,1.32-6.71,2.84-9.18a17.21,17.21,0,0,1,8-6.87c2-.83,4.24-1.32,5.82-2.8,3.48-3.26,8.82-2.15,13.58-2.41,3.45-.19,6.63,1.26,10,2.09a11.47,11.47,0,0,1,3.41,1.26,14.84,14.84,0,0,1,2.83,2.68c2.73,3,6.1,5.49,7.75,9.16a23.59,23.59,0,0,1,1.51,5.8l1.24,7.22a21.51,21.51,0,0,1,.43,6.79,17.49,17.49,0,0,0-.42,3C375.18,311.61,376.18,313.7,378.2,314.2Z"/><path class="cls-6" d="M368.7,397.79a1.56,1.56,0,0,1,1.8-.06,3.64,3.64,0,0,1,1.23,1.46,23.35,23.35,0,0,1,2,6.14l3.89,17.41a4.19,4.19,0,0,1,0,2.58c-.35.8-1.49,1.3-2.13.7l-3.66-16.85a50.44,50.44,0,0,0-1.65-6.31C369.82,401.85,367.6,398.77,368.7,397.79Z"/><path class="cls-7" d="M378.46,430.45c.08-.06.18.08.13.16a.33.33,0,0,1-.25.13,16.25,16.25,0,0,1-3.55.18,11.3,11.3,0,0,1-.6-4,3.06,3.06,0,0,1,.4-1.62c.59-.88,1.79-1,2.85-1.13a2.24,2.24,0,0,1,1,.07,1.77,1.77,0,0,1,.9,1,7.26,7.26,0,0,1,.5,2.85,4.31,4.31,0,0,1-.3,2,1.61,1.61,0,0,1-1.64,1"/><path class="cls-8" d="M345.5,327.05a3.73,3.73,0,0,1,2.78,4.13,3,3,0,0,1-4.24,2l-1-1.47a1.66,1.66,0,1,0-.48-3.06,2.34,2.34,0,0,0-.88,2.55,8.63,8.63,0,0,0,1.3,2.56c2.72,4.33,3.83,9.5,4.17,14.6a5.17,5.17,0,0,1-.55,3.3,4.29,4.29,0,0,1-2.54,1.53,5.59,5.59,0,0,1-3,.07,3.84,3.84,0,0,1-.09-7.32c.71-.23,1.72-.09,1.88.64s-.65,1.26-1.34,1.56a1.16,1.16,0,0,0,.49,1.79,1.76,1.76,0,0,0,1.94-.7,3.81,3.81,0,0,0,.62-2.09c.24-4.4-2.34-8.26-3.68-12.29C339.66,331,339.56,325.54,345.5,327.05Z"/><path class="cls-9" d="M332.19,197.05a1.39,1.39,0,0,1-.06.79,1.35,1.35,0,0,1-.5.5c-3.22,2.15-7.63,1.11-11.22,2.55a.57.57,0,0,1-.39.06.56.56,0,0,1-.28-.36l-1.58-4.08c-.27-.69,8.58-2.85,9.36-3.06.94-.25,1.94-.93,2.87-.46C331.52,193.55,332,196,332.19,197.05Z"/><path class="cls-8" d="M360.09,323.62a3.73,3.73,0,0,0-.83,4.91,3,3,0,0,0,4.68.06l.27-1.73a1.66,1.66,0,1,1-.82-3,2.34,2.34,0,0,1,1.85,2,8.63,8.63,0,0,1-.13,2.87c-.69,5.07.43,10.23,2.23,15a5.17,5.17,0,0,0,1.87,2.78,4.29,4.29,0,0,0,2.94.35,5.59,5.59,0,0,0,2.75-1.17A3.84,3.84,0,0,0,372,339c-.74.08-1.6.63-1.45,1.36s1.12.88,1.86.87a1.16,1.16,0,0,1,.3,1.83,1.76,1.76,0,0,1-2.05.17,3.81,3.81,0,0,1-1.43-1.65c-2-3.91-1.28-8.49-1.72-12.71C367.05,324.83,364.88,319.79,360.09,323.62Z"/><path class="cls-9" d="M321.7,196.2a11.38,11.38,0,0,1-.27,6.25c-.42,1-1.12,2-.94,3.14,4,.38,7.79-1.29,11.42-2.91a9.08,9.08,0,0,1-3-4.67c-.57-1.79-.84-3.66-1.37-5.47-.66-2.3-2.88-5-5.47-3.06C320.06,191,321.35,194.19,321.7,196.2Z"/><path class="cls-10" d="M335,203.89a3.6,3.6,0,0,1,2.37-.54,1,1,0,0,1,.5.09,1.67,1.67,0,0,1,.42.49c.5.65,1.47.72,2.08,1.27a2.12,2.12,0,0,1,.17,2.71,3.62,3.62,0,0,1-2.54,1.36,3.09,3.09,0,0,1-1.69-.18,1.63,1.63,0,0,1-1-1.32c-.88,0-7.58.7-5.6-.69.68-.48,2-.23,2.83-.65C333.71,205.83,334,204.68,335,203.89Z"/><path class="cls-10" d="M334,214.18c1.1-.19,1.83-1.21,2.43-2.15a1,1,0,0,1,1.06-.57l2.57,0a.58.58,0,0,1,.68.49l.58,1.66a2.4,2.4,0,0,1,.2,1,2.12,2.12,0,0,1-1.32,1.46c-.82.41-2,.61-2.51-.13a1.82,1.82,0,0,0-.39-.51,1,1,0,0,0-.57-.1,32.15,32.15,0,0,0-4.16.74.57.57,0,0,1-.36,0c-.2-.1-.21-.37-.23-.59a3.27,3.27,0,0,0-.86-1.75C332,213.81,333,214.35,334,214.18Z"/><path class="cls-10" d="M321.45,213.39a2.52,2.52,0,0,1-.91.13,3.29,3.29,0,0,1-1.07-.41,5.47,5.47,0,0,0-3.7-.38,2.29,2.29,0,0,0-1.13.59,2,2,0,0,0-.47,1.3,3,3,0,0,0,5.54,1.53,1.64,1.64,0,0,1,.43-.6,1.28,1.28,0,0,1,.54-.17l4.67-.72c.95-.15.84-1.77.15-2.19S322.26,213.17,321.45,213.39Z"/><path class="cls-10" d="M322.34,220.24c-.93-.05-1.85-.23-2.78-.24a4.24,4.24,0,0,0-2.64.72,2.23,2.23,0,0,0-.84,2.46,2.36,2.36,0,0,0,1.57,1.31,7,7,0,0,0,2.11.19,1.58,1.58,0,0,0,1.26-.4c.29-.36.21-.91.44-1.3a1.59,1.59,0,0,1,.9-.6c.94-.32,4.93-.48,4.74-1.84C326.93,219.35,323.14,220.28,322.34,220.24Z"/><path class="cls-5" d="M324.36,215.81l2.91,11.06a2.78,2.78,0,0,0,.61,1.32,2.08,2.08,0,0,0,1.64.38q2.08-.12,4.15-.37c3.69-.44,2.3-6.36,1.46-9.18-.65-2.18-1.58-4.24-2.31-6.39a71.26,71.26,0,0,1-1.64-7.19c-.39-1.69-.54-1.78-2.08-1.66-1.32.1-5.18.67-5.95,2.12C321.93,208.2,323.76,213.52,324.36,215.81Z"/><path class="cls-11" d="M332.28,217.92l7.14,29.3c.66,2.71,1.32,5.43,1.74,8.19.35,2.33.52,4.69,1,7a82,82,0,0,0,3.19,9.66,134.13,134.13,0,0,1,4.11,15.86l1.15,5.32c.9,4.18,1.08,8.92,2.73,12.82s3.6,8.59,3.65,13a40.74,40.74,0,0,1-11.88,3.47,189.85,189.85,0,0,1-7-34.67c-.48-4.35-.81-8.72-1.37-13.06-.68-5.23-1.7-10.42-2.71-15.6l-10.15-51.78a4.76,4.76,0,0,1,2.92-2.55.9.9,0,0,1,.5,0,.94.94,0,0,1,.41.34,9.37,9.37,0,0,1,2,5.24,9.77,9.77,0,0,0,.17,1.84,8,8,0,0,0,.76,1.67A13.18,13.18,0,0,1,332.28,217.92Z"/><path class="cls-12" d="M351.52,335.62c-1.66.72-3,2.62-2.37,4.33a17.65,17.65,0,0,0,2.27.28,18,18,0,0,0,7.75-1.28c2.24-.91,1.13-2.2-.5-3A9.35,9.35,0,0,0,351.52,335.62Z"/><path class="cls-13" d="M368.08,399c-3.6-9.29-7-18.67-10.3-28.05l-1.75-4.9-4.19-11.75c2.59-2.61,5.66-2.9,9.31-3.24a2.66,2.66,0,0,1,2.35.55,2.61,2.61,0,0,1,.45,1.24L370,386.35l1.55,8.55a7.71,7.71,0,0,1,.16,2.78,2.62,2.62,0,0,1-1.65,2.09C369.16,400,368.94,399.44,368.08,399Z"/><line class="cls-14" x1="329.74" y1="210.42" x2="363.05" y2="358.86"/><line class="cls-14" x1="327.1" y1="212.36" x2="358.63" y2="358.86"/><line class="cls-14" x1="325.5" y1="212.47" x2="355.81" y2="359.21"/><line class="cls-14" x1="327.83" y1="210.42" x2="361.14" y2="358.86"/><path class="cls-15" d="M309.88,395a2.05,2.05,0,0,0-1.94,1.22,5.75,5.75,0,0,0-.46,2.37q-.06,1.32-.07,2.65c-.2.79-1.38,1-2,.43a2.79,2.79,0,0,1-.78-2.23,10.72,10.72,0,0,0,0-2.44l-3.4.91a2,2,0,0,0-.83.36,1.85,1.85,0,0,0-.49,1c-1.07,4.05.16,8.31,1.38,12.32a1.29,1.29,0,0,0,.4.71,1.63,1.63,0,0,0,.88.18c1.27.08,2.39.93,3.65,1.06a9.64,9.64,0,0,0,4.63-1.08c1.41-1.14.93-2.1.69-4Q310.71,401.71,309.88,395Z"/><path class="cls-16" d="M291.88,362.64q-.7-7.82-1.09-15.66c-.22-4.53-1.54-8-2.31-12.45q-1.67-9.58-3.85-19.06c-.74-3.23-1.77-6.46-2.37-9.71-.38-2-.09-4-.36-6.07-1.7-13.18-5.15-26.38-7.7-39.43-.68-3.47-2.6-5.74-3.25-9.21-1.49-8-5.39-15.9-9.81-22.74,2.07,0,3.94-1.28,5.32-2.82s2.45-3.36,3.9-4.83a29,29,0,0,1,3.74,8.2.58.58,0,0,1,0,.44.54.54,0,0,1-.32.21,15.92,15.92,0,0,1-2.62.43A3.06,3.06,0,0,0,269,231.2c-.67,1.16,0,2.61.73,3.76,2.11,3.48,3,7.59,4.21,11.49a385.88,385.88,0,0,1,10.63,45.39c1.52,8.86,3,17.27,4.39,26.15.41,2.62.84,5.32,2.26,7.56,2.86,4.5,1.31,9.8,2.32,15,.71,3.69,1.57,7.4,1.46,11.15-.23,7.92,2.12,15.47,2.93,23.35.75,7.32,1,13.72,3,20.81a13.48,13.48,0,0,1,.85,4.55c.54,1.06,0,1.4.15,2.57.18,1.9,1,3.7,1.29,5.59.58,3.49-.48,7.22.77,10.53.19.51.26,1.32-.28,1.36-2.3.17-4.2-.67-6.42,0,1-.16.79-.89.8-1.86a100.88,100.88,0,0,0-1.76-20.2c-2.25-11.85-1.7-24.07-3.8-35.95C292.8,362,291.93,363.2,291.88,362.64Z"/><path class="cls-17" d="M298.29,417.25c.09,2.46-1.58,4.74-1.43,7.2a8,8,0,0,0,1.15,3.34,5.33,5.33,0,0,0,1.45,1.81,3.61,3.61,0,0,0,4.3-.34,5.2,5.2,0,0,0,1.65-4.18,9.54,9.54,0,0,0-1.47-4.36,3.11,3.11,0,0,0-1.09-1.22,2.39,2.39,0,0,0-1.4-.22,4,4,0,0,0-3.25,2.5"/><path class="cls-18" d="M270.46,220.59S309.24,341.45,308,399.35"/><path class="cls-19" d="M177.85,322.83c-.22,4.81,1.78,9.35,3.41,13.8,6.57,17.94,7.74,37.71,8.83,57.07a3.51,3.51,0,0,1-.34,2.15,2.68,2.68,0,0,1-1.22.87c-7.34,3.25-15.42,3.47-23.31,3.64-24.74.55-49.57,1-74.12-2.44.09-1-.9-1.86-1.73-1.54a234.55,234.55,0,0,1,10.21-41.77,60.87,60.87,0,0,0,3-10.37,55.39,55.39,0,0,0,.42-9l-.09-11.7c0-2.79-.63-3.54-1.14-6.28a10.7,10.7,0,0,0-1.19-3.59,3.68,3.68,0,0,0-2.82-1.94c-1.4,13.61-5.38,26.72-8.83,39.86l-3.08,11.74c-7.05.29-14.31.55-20.94-2.18-4.62-1.9-8.88-5.24-13.78-5.75,5.26-9.48,7.36-20.67,9.31-31.62,2.2-12.35,4-24.94,8.56-36.45,2-5.07,4.52-9.85,7-14.66,4-7.75,7.84-15.61,10.57-24,1.8-5.52,3.11-11.29,5.6-16.47s6.43-9.85,11.52-11.23c4.62-1.25,9.65.33,14.13-1.45,3.67-1.45,8.56-.32,12.44-.7a76.43,76.43,0,0,1,12.11-.53c6.19.39,12.25,2.28,18.45,2.63,7.83.45,16.37-1.37,23,3.36,4.08,2.92,6.62,7.85,8.73,12.74,4.11,9.52,10.07,17.75,13.48,27.61,1.44,4.15,2.67,8.4,4.3,12.46,1.81,4.5,4.09,8.74,6,13.2,3.2,7.52,5.26,15.62,8.72,23,2.23,4.76,5,9.16,7.19,13.95a119,119,0,0,1,4.45,12L241,352.55a1.39,1.39,0,0,1,.1.73,1.19,1.19,0,0,1-.67.7c-5.16,2.9-10.34,5.81-15.7,8.19a184.15,184.15,0,0,1-19.68,7,89.67,89.67,0,0,1-3.89-8.3L191.3,336a22.24,22.24,0,0,1-1.65-5.54,56.67,56.67,0,0,1,.12-6.58,18.47,18.47,0,0,0-4.71-12.39c.62,1.91-1,3.54-.43,5.45a7.9,7.9,0,0,1,.52,2.43c0,1.42-.75,2.79-.54,4.19A13.26,13.26,0,0,1,177.85,322.83Z"/><path class="cls-19" d="M142.54,231.26a3.79,3.79,0,0,1,1.11,1.7,4.06,4.06,0,0,1-.59,2.62,72.07,72.07,0,0,1-5.92,9.88c-1.83-1.09-3-3.18-4.12-5.13A113.08,113.08,0,0,0,119,221c-1.21-1.34-2.56-3-2.18-4.88.45-2.2,3.43-6.27,5.47-5.86s5.22,5.34,6.73,6.91C133.53,221.87,138.05,226.54,142.54,231.26Z"/><path class="cls-20" d="M85.42,364.09a2.92,2.92,0,0,1-2,2.6c-7.31,3-15.14-.19-22.46-3.38-4.19-1.82-8.7-4-11.22-9A140.51,140.51,0,0,1,68.2,356C70.26,356.39,85.42,360.46,85.42,364.09Z"/><path class="cls-20" d="M205.34,370.57a47.52,47.52,0,0,0,19.5-6.29c2.13-1.24,4.22-2.66,6.57-3.22,1.77-.42,3.66-.34,5.32-1.15,2.89-1.4,4.3-5,5.44-8.32,0-.14-10.68,2.78-11.88,3.52-2.67,1.62-4.91,3.83-7.45,5.64C219.52,363.13,204.42,364.75,205.34,370.57Z"/><path class="cls-19" d="M101.67,339.78l3.09-12.69c2.56-10.53,5.13-21.06,8.35-31.36a236.17,236.17,0,0,1,47.23-84.94,14.52,14.52,0,0,1,5.48,2.34,6.32,6.32,0,0,1,2.88,5.53,9.72,9.72,0,0,1-2,4.45c-11.84,17.6-21.75,36.73-31,56.18-2.65,5.57-5.25,11.17-7.52,16.94-4.49,11.44-7.65,23.48-10.79,35.48-4.76,18.19-9.56,36.57-10.57,55.49l30.13,2.31c5.57.43,11.14.86,16.72.77a181.06,181.06,0,0,0,21.39-2,93.58,93.58,0,0,0,14-2.64"/><path class="cls-20" d="M96.74,254.56c-1,8.87-.68,19,5,25.22,2,2.22,4.69,3.89,5.83,6.8a7.85,7.85,0,0,1-2.3,8.76c-1.5,1.11-3.36,1.47-4.81,2.66-2.74,2.24-3.14,6.61-3,10.41a2.78,2.78,0,0,1-.26,1.65c-.8,1.19-2.52-.13-2.85-1.57a9.26,9.26,0,0,1,1.49-6.66c1.18-2,2.69-3.64,3.77-5.66a15.56,15.56,0,0,0,1.58-9.55c-.78-5-3.9-9.15-5.47-13.92-2.47-7.49-1-15.77-.32-23.72.28-3.48.39-7,.33-10.48,0-2.56-1.28-7.71.09-9.78C101.19,230.95,97.24,249.95,96.74,254.56Z"/><path class="cls-20" d="M84.71,336a2,2,0,0,1,1.5.24,2.55,2.55,0,0,1,.67,1.45c.38,1.67.75,3.53,0,5-.54,1.15-1.69,2.25-1.26,3.45a3.82,3.82,0,0,0,3.31-1.09c2.05-1.79,3.09-4.74,3.32-7.65a19.74,19.74,0,0,0-.32-6.17c-.74-2.8-.67-2.51-3.29-2.72-2.18-.17-4.45-.55-6.58.18-1.81.62-5.42,2.67-5.78,4.95C75.56,338.36,82.48,336.22,84.71,336Z"/><path class="cls-20" d="M72.3,314.43c-1.34,1.45-3.24,2.45-5.06,2a4,4,0,0,1-2.77-3.29,22.38,22.38,0,0,1,1-5.76C67.79,304.65,70.83,312.63,72.3,314.43Z"/><path class="cls-20" d="M143.74,316.56a52.28,52.28,0,0,0,21.11,4.66c1-2.51-.47-5.4-2.25-7.28s-4-3.33-5.23-5.69c8.13-.93,16.56,4.14,20.38,12.26a23.14,23.14,0,0,1-6,.47,2,2,0,0,0-1.36.25c-.77.6-.5,1.91-.55,3-.3,5.88-9.63,4.63-12.82,3.55-2.3-.78-4.48-2.63-6.39-4.2S146,317.56,143.74,316.56Z"/><path class="cls-20" d="M216,323.17c1.71-.07,3.16-1.56,3.88-3.3a17.47,17.47,0,0,0,1-5.61c.16-2.56.17-9.57-1.94-4.14C218.28,311.62,217.69,323.1,216,323.17Z"/><path class="cls-20" d="M186.32,250.28a38.26,38.26,0,0,1,.48,10.33c-1.33,9.76-9.75,16.47-12.38,25.89-.23.82-.31,1.94.38,2.31a1.48,1.48,0,0,0,1.31-.15,17.24,17.24,0,0,0,7.44-7l-.69,14a22.5,22.5,0,0,0,.42,7.18c.65,2.3,2.23,4.43,4.35,4.86l1-5.43c1.83-.47,3.59.84,5.33,1.66s4.24.82,5-1.14-1.19-4-3-4.55-3.94-.47-5.47-1.75c-2-1.63-2.21-4.74-2.29-7.47-.31-9.93-.61-19.9.31-29.79.46-4.9,3.79-18.4-.41-22.14C183.45,233.11,186.1,248.63,186.32,250.28Z"/><path class="cls-21" d="M163.21,358.14c1.77,3.5,2.55,7.51,3.3,11.44,1,5.1,2,10.21,2.65,15.37,2.38,17.8,1.29,35.94.19,53.9a4.21,4.21,0,0,1-.57,2.26,3.22,3.22,0,0,1-2.84.9,17,17,0,0,1-5.88-.85,6.78,6.78,0,0,1-4.16-4.43,12.15,12.15,0,0,1,0-4.59,79.63,79.63,0,0,0,.86-13.86c-.21-4.41-1.06-8.76-1.39-13.16-1-13.31,2.77-26.66,1.72-40-.3-3.89-1.15-8-3.67-10.68-1-1.07-2.24-1.85-3.18-3a4.48,4.48,0,0,1-1-4.25C151.29,341.86,162,355.81,163.21,358.14Z"/><path class="cls-22" d="M107.09,376.41a32.45,32.45,0,0,0-1.71,5.83c-.31,1.84-.33,3.74-.71,5.56-.67,3.24-2.43,6-3.68,9a60.89,60.89,0,0,0-3.12,11.54c-2.06,10.26-4.13,20.6-4.42,31.11a30.67,30.67,0,0,1,14.22.39c.45-17.46,1.77-34.88,4-52.18.86-6.84,1.88-13.72,4.08-20.17S121.41,355,126.42,351a17.36,17.36,0,0,0,3.33-3c3.67-4.92-2.23-7.54-5.89-7s.71-3.65,0,0c-.94,4.84-8.3,15.41-10.31,19.77Q110,368.46,107.09,376.41Z"/><path class="cls-22" d="M132.45,333.08c-2.54.93-5.15,1.9-7.19,3.82a8.58,8.58,0,0,0-2.72,7.94c-3.83-2.89-8.44-4.11-12.94-5.28l-7.08-1.84a19.74,19.74,0,0,0,1-5.85c0-1.51-1-4.6-.46-5.89,1.35-3,6.29,1.26,8.44,2.18a59.5,59.5,0,0,0,10.32,3.29C124.43,332,129.85,334,132.45,333.08Z"/><path class="cls-22" d="M169,341.91a28.16,28.16,0,0,0-5.52,1.95A52.87,52.87,0,0,1,152.8,347a9,9,0,0,0-1.4-9.89c-1.1-1.12-2.53-1.87-3.42-3.21a79.82,79.82,0,0,0,23.73-5.76,8.1,8.1,0,0,1,3.67-.91c1.83.16,3.36,1.62,4.54,3.21,1.44,2,7,12.35,2.69,13.15-.94.18-3.82-1.47-5-1.59A32,32,0,0,0,169,341.91Z"/><path class="cls-21" d="M130.85,347.67c-1.46-.92-7.2-2.64-8.61-1.57-2.93,2.21-5.43,8.74-7.21,12.1A144.15,144.15,0,0,0,104.21,385c-.32,1.11-.43,2.73.57,3.07.77.26,1.48-.55,2-1.28a117.09,117.09,0,0,0,8.12-14.65c2.64-5.69,4.94-11.76,9-16.27,2.31-2.56,5.68-4.63,7.23-7.88-2.83,0-6.94,5.66-8.75,8a48.46,48.46,0,0,0-6.64,11.66,15.34,15.34,0,0,0-1.4,7.54"/><path class="cls-22" d="M154,343.22a16.13,16.13,0,0,0,.21-4.92,4.65,4.65,0,0,0-1-1.83c-2.73-3.49-7.68-6.4-11.59-7.66-6.19-2-10.5,4-15.12,7.86a9.2,9.2,0,0,0-2.1,2.23,10.74,10.74,0,0,0-1.08,4.69,5,5,0,0,0,.16,2.18,4.14,4.14,0,0,0,2,1.89l12,7a11,11,0,0,0,3.71,1.59c2.49.39,4.89-1,7.09-2.38,2.87-1.78,4.8-3.56,5.19-7.37C153.66,345.64,153.86,344.45,154,343.22Z"/><path class="cls-21" d="M142.44,337.94a72.65,72.65,0,0,0,6.18,6.15c1,.84,2.14,1.65,3.37,1.49,1.84-.24,2.93-2.68,2.63-4.73a10.44,10.44,0,0,0-2.89-5.2c-2.43-2.74-6.95-7.42-10.78-6.19C136,331.06,140.39,335.73,142.44,337.94Z"/><path class="cls-22" d="M158.43,359.18a58.37,58.37,0,0,1,5.1,10l4.64,10.71a42.72,42.72,0,0,1-.48-7.11,35.24,35.24,0,0,0-3.58-15.12c-1.94-3.68-8-11.18-12.59-9.56C146,350,157,357.14,158.43,359.18Z"/><path class="cls-23" d="M487.53,384.81l-14.87-4.9s9.19-4.29,0-15.11L487.53,368v16.86"/><rect class="cls-24" x="479.02" y="414.21" width="85" height="12.8"/><rect class="cls-25" x="479.02" y="401.55" width="85" height="12.66"/><rect class="cls-26" x="487.53" y="384.81" width="71.89" height="16.74"/><rect class="cls-27" x="487.53" y="367.95" width="78.43" height="16.86"/><rect class="cls-28" x="482.91" y="347.66" width="73.65" height="17.15"/><rect class="cls-29" x="471.03" y="334.18" width="92.99" height="13.47"/><rect class="cls-30" x="474.81" y="320.71" width="93.18" height="13.47"/><rect class="cls-31" x="493.68" y="295.4" width="59.61" height="25.31"/><rect class="cls-32" x="493.68" y="271.71" width="78.39" height="23.68"/><rect class="cls-2" x="513.69" y="256.4" width="34.71" height="15.31"/><polygon class="cls-27" points="487.52 367.95 474.81 364.81 556.56 364.81 565.95 367.95 487.52 367.95"/><polygon class="cls-32" points="572.08 295.39 565.95 299.89 553.3 299.89 553.3 295.39 572.08 295.39"/><polygon class="cls-32" points="493.68 295.39 480.62 297.64 493.68 297.64 493.68 295.39"/><path class="cls-33" d="M493.68,295.4l-13.07,2.25s4.08-10.21,0-20l13.07-5.92Z"/><rect class="cls-34" x="485.72" y="414.21" width="7.96" height="12.8"/><rect class="cls-34" x="496.54" y="414.21" width="1.84" height="12.8"/><rect class="cls-35" x="493.68" y="384.81" width="11.02" height="16.74"/><rect class="cls-36" x="546.21" y="347.66" width="1.16" height="17.15"/><rect class="cls-36" x="549.83" y="347.66" width="1.25" height="17.15"/><rect class="cls-37" x="485.72" y="337.45" width="1.8" height="6.94"/><rect class="cls-37" x="480.62" y="337.45" width="2.29" height="6.94"/><rect class="cls-38" x="501.44" y="295.4" width="2.25" height="25.31"/><rect class="cls-39" x="542.27" y="256.4" width="2.04" height="15.31"/><circle class="cls-39" cx="523.63" cy="265" r="3.9"/><circle class="cls-34" cx="503.13" cy="420.59" r="2.7"/><circle class="cls-40" cx="492.74" cy="408.26" r="3.04"/><line class="cls-41" x1="259.57" y1="71.65" x2="274.19" y2="74.3"/><line class="cls-42" x1="59.08" y1="87.8" x2="187.98" y2="91.69"/><line class="cls-42" x1="57.7" y1="79.34" x2="187.98" y2="84.84"/><line class="cls-43" x1="13.93" y1="82.84" x2="57.7" y2="71.46"/><polyline class="cls-44" points="13.93 79.34 11.76 205.77 57.7 194.32 187.98 175.08 277.43 164.06 362.6 156.02 364.19 66.5 325.86 64.36 325.86 69.03 273.9 66.3 256.39 69.8 189.06 65.13 196.46 73.21 53.24 67.08 13.93 79.34 13.93 79.34 13.93 79.34"/><line class="cls-41" x1="319.75" y1="160.07" x2="277.11" y2="159.21"/><line class="cls-41" x1="278.25" y1="154.78" x2="343.57" y2="157"/><line class="cls-41" x1="362.67" y1="152.01" x2="278.25" y2="148.81"/><line class="cls-41" x1="278.25" y1="144.57" x2="361.47" y2="147.45"/><line class="cls-41" x1="362.87" y1="140.94" x2="276.63" y2="141.76"/><line class="cls-41" x1="277.43" y1="135.06" x2="362.95" y2="136.43"/><line class="cls-41" x1="276.63" y1="121.08" x2="363.08" y2="128.7"/><line class="cls-41" x1="275.67" y1="128.7" x2="363.02" y2="132.14"/><line class="cls-41" x1="275.67" y1="117.87" x2="364.19" y2="124.87"/><line class="cls-41" x1="276.63" y1="115.18" x2="363.23" y2="120.45"/><line class="cls-41" x1="276.63" y1="107.89" x2="363.35" y2="113.65"/><line class="cls-41" x1="276.22" y1="101.89" x2="363.46" y2="107.89"/><line class="cls-41" x1="275.67" y1="95.25" x2="364.19" y2="103.08"/><line class="cls-41" x1="275.67" y1="88.09" x2="363.67" y2="95.68"/><line class="cls-41" x1="275.67" y1="82.84" x2="363.81" y2="87.8"/><line class="cls-41" x1="274.19" y1="74.3" x2="364.19" y2="79.99"/><line class="cls-41" x1="325.86" y1="69.02" x2="364.15" y2="68.99"/><line class="cls-41" x1="275.67" y1="68.99" x2="364.19" y2="74.3"/><line class="cls-41" x1="276.22" y1="112.61" x2="260.46" y2="103.08"/><line class="cls-41" x1="260.46" y1="99.38" x2="275.28" y2="104.49"/><line class="cls-41" x1="259.57" y1="91.69" x2="276.22" y2="99.38"/><line class="cls-41" x1="260.46" y1="87.22" x2="276.22" y2="91.69"/><line class="cls-41" x1="262.4" y1="74.3" x2="274.3" y2="77.15"/><line class="cls-41" x1="260.46" y1="78.56" x2="275.67" y2="82.84"/><polyline class="cls-44" points="57.7 67.27 57.7 116.43 54.45 125.41 57.7 194.63 11.76 205.77 11.76 79.37 53.02 67.08 57.7 67.27"/><line class="cls-41" x1="15.29" y1="115.18" x2="57.7" y2="107.94"/><polyline class="cls-44" points="57.7 116.31 187.98 119.81 187.98 72.85 57.7 67.27 57.7 116.31"/><line class="cls-41" x1="57.7" y1="71.46" x2="187.98" y2="77.15"/><line class="cls-41" x1="13.93" y1="126.92" x2="56.48" y2="119.81"/><line class="cls-41" x1="13.93" y1="161.11" x2="55.92" y2="154.78"/><line class="cls-41" x1="13.93" y1="196.68" x2="57.7" y2="188.8"/><line class="cls-41" x1="13.93" y1="189.38" x2="57.7" y2="182.43"/><line class="cls-41" x1="13.93" y1="185.59" x2="56.96" y2="177.99"/><line class="cls-41" x1="55.68" y1="149.43" x2="189.06" y2="147.45"/><line class="cls-41" x1="55.27" y1="140.12" x2="187.98" y2="142.36"/><line class="cls-41" x1="54.9" y1="135.06" x2="189.06" y2="136.13"/><line class="cls-41" x1="54.45" y1="125.4" x2="189.06" y2="129.93"/><line class="cls-41" x1="56.48" y1="119.81" x2="187.98" y2="126.92"/><line class="cls-41" x1="57.7" y1="112.13" x2="187.98" y2="115.18"/><line class="cls-41" x1="57.7" y1="107.94" x2="187.98" y2="111.56"/><line class="cls-41" x1="191.45" y1="106.23" x2="263.51" y2="107.89"/><line class="cls-41" x1="189.06" y1="96.46" x2="260.46" y2="99.38"/><line class="cls-41" x1="187.98" y1="91.69" x2="259.57" y2="91.69"/><line class="cls-41" x1="187.98" y1="84.84" x2="260.46" y2="87.22"/><line class="cls-41" x1="187.98" y1="77.15" x2="261.47" y2="82.84"/><line class="cls-41" x1="196.46" y1="73.21" x2="260.46" y2="78.56"/><line class="cls-41" x1="192.59" y1="68.99" x2="259.57" y2="74.3"/><line class="cls-41" x1="187.98" y1="111.56" x2="271.34" y2="113.65"/><line class="cls-41" x1="57.7" y1="102.59" x2="187.98" y2="106.39"/><line class="cls-41" x1="59.08" y1="87.8" x2="187.98" y2="91.69"/><line class="cls-41" x1="57.7" y1="91.31" x2="189.06" y2="96.46"/><line class="cls-41" x1="57.7" y1="79.34" x2="187.98" y2="84.84"/><line class="cls-41" x1="13.93" y1="180.04" x2="56.63" y2="170.59"/><line class="cls-41" x1="13.93" y1="175.08" x2="56.43" y2="166.11"/><line class="cls-41" x1="13.93" y1="167.49" x2="56.02" y2="157"/><line class="cls-41" x1="13.93" y1="157" x2="55.68" y2="149.43"/><line class="cls-41" x1="13.93" y1="147.45" x2="55.27" y2="140.12"/><line class="cls-41" x1="12.89" y1="140.12" x2="56.45" y2="132.14"/><line class="cls-41" x1="13.93" y1="132.14" x2="54.6" y2="125.26"/><line class="cls-41" x1="13.93" y1="122.54" x2="57.7" y2="112.13"/><line class="cls-41" x1="13.41" y1="109.88" x2="57.7" y2="102.59"/><line class="cls-41" x1="13.54" y1="101.89" x2="57.7" y2="91.31"/><line class="cls-41" x1="11.76" y1="91.31" x2="57.7" y2="79.34"/><line class="cls-41" x1="13.93" y1="84.01" x2="57.7" y2="71.46"/><line class="cls-44" x1="187.98" y1="115.18" x2="275.67" y2="117.87"/><line class="cls-44" x1="260.46" y1="68.99" x2="260.46" y2="103.08"/><polyline class="cls-44" points="275.67 117.87 260.46 103.08 187.98 101.89"/><line class="cls-44" x1="273.9" y1="66.3" x2="277.43" y2="164.06"/><line class="cls-41" x1="189.06" y1="172.16" x2="200.64" y2="173.52"/><line class="cls-41" x1="189.06" y1="168.36" x2="218.59" y2="170.59"/><line class="cls-41" x1="187.98" y1="164.06" x2="259.57" y2="166.26"/><line class="cls-41" x1="189.06" y1="159.12" x2="277.11" y2="159.21"/><line class="cls-41" x1="262.4" y1="154.78" x2="278.25" y2="154.78"/><line class="cls-41" x1="265.11" y1="147.45" x2="278.25" y2="148.81"/><line class="cls-41" x1="264.34" y1="140.12" x2="276.63" y2="141.76"/><line class="cls-41" x1="187.98" y1="126.92" x2="275.67" y2="128.7"/><line class="cls-41" x1="187.98" y1="119.81" x2="276.63" y2="121.08"/><line class="cls-41" x1="57.7" y1="188.8" x2="96.98" y2="188.52"/><line class="cls-45" x1="364.19" y1="66.5" x2="362.6" y2="156.02"/><line class="cls-45" x1="187.98" y1="101.89" x2="260.46" y2="103.08"/><line class="cls-45" x1="275.67" y1="117.87" x2="187.98" y2="115.18"/><line class="cls-45" x1="273.9" y1="66.3" x2="277.43" y2="164.06"/><path class="cls-46" d="M188.52,136l76,2.71s-3.39,26.28-2,26.48-74.06,0-74.06,0V136"/><line class="cls-45" x1="57.7" y1="194.63" x2="187.98" y2="175.08"/><line class="cls-45" x1="187.98" y1="72.85" x2="187.98" y2="175.08"/><line class="cls-45" x1="57.7" y1="194.63" x2="11.76" y2="205.77"/><line class="cls-45" x1="11.76" y1="79.37" x2="11.76" y2="205.77"/><line class="cls-45" x1="57.7" y1="194.63" x2="54.45" y2="125.4"/><line class="cls-45" x1="54.45" y1="125.4" x2="57.7" y2="116.43"/><line class="cls-45" x1="57.7" y1="67.27" x2="57.7" y2="116.43"/><line class="cls-41" x1="57.7" y1="182.43" x2="136.26" y2="182.72"/><line class="cls-41" x1="56.96" y1="177.99" x2="174.2" y2="177.11"/><line class="cls-41" x1="56.63" y1="170.59" x2="185.9" y2="168.95"/><line class="cls-41" x1="56.43" y1="166.11" x2="187.98" y2="164.06"/><line class="cls-41" x1="57.7" y1="161.11" x2="189.06" y2="159.12"/><line class="cls-41" x1="56.02" y1="157" x2="187.98" y2="154.78"/><line class="cls-44" x1="187.98" y1="175.08" x2="187.98" y2="119.81"/><polyline class="cls-46" points="20.55 203.75 20.55 167.58 49.3 161.11 51.1 196 20.55 203.75"/><polygon class="cls-47" points="45.8 126.92 45.23 150.69 51.1 147.83 51.1 124.87 45.8 126.92"/><rect class="cls-47" x="20.55" y="126.92" width="3.7" height="26.4"/><polygon class="cls-47" points="45.8 78.56 45.8 103.08 52.8 100.78 49.3 76.61 45.8 78.56"/><polygon class="cls-47" points="24.24 83.81 24.24 110.28 16.85 112.13 18.8 82.84 24.24 83.81"/><polygon class="cls-47" points="343.57 106.39 345.13 116.7 359.14 117.87 357.97 107.36 343.57 106.39"/><polygon class="cls-47" points="344.93 95.68 343.57 103.08 359.14 103.08 357.97 96.46 344.93 95.68"/><polygon class="cls-47" points="343.57 79.34 343.57 90.62 357.97 91.31 357.97 80.31 343.57 79.34"/><polygon class="cls-47" points="325.86 78.56 325.86 90.62 339.29 91.11 338.51 78.56 325.86 78.56"/><line class="cls-41" x1="266.96" y1="109.4" x2="187.98" y2="106.39"/><polygon class="cls-47" points="306.4 83.81 306.4 98.41 315.74 98.41 315.74 84.98 306.4 83.81"/><polygon class="cls-47" points="285.19 82.84 285.19 97.63 300.37 98.41 300.37 83.81 285.19 82.84"/><rect class="cls-47" x="68.34" y="132.14" width="20.99" height="24.85"/><rect class="cls-47" x="68.34" y="77.74" width="20.99" height="24.85"/><rect class="cls-47" x="147.82" y="129.93" width="20.99" height="24.85"/><rect class="cls-47" x="158.32" y="78.56" width="11.09" height="13.13"/><rect class="cls-47" x="191.45" y="83.81" width="7.15" height="11.87"/><line class="cls-45" x1="362.6" y1="156.02" x2="277.43" y2="164.06"/><line class="cls-45" x1="277.43" y1="164.06" x2="187.98" y2="175.08"/><line class="cls-45" x1="129.13" y1="182.69" x2="187.98" y2="175.08"/><rect class="cls-47" x="202.68" y="84.98" width="9.73" height="11.48"/><polygon class="cls-47" points="227.46 84.98 227.46 97.63 215.72 96.85 215.72 84.98 227.46 84.98"/><polygon class="cls-47" points="239.46 84.98 241.6 98.41 230.71 98.41 230.71 84.98 239.46 84.98"/><polygon class="cls-47" points="243.35 84.98 254.44 84.98 254.44 98.41 244.33 98.41 243.35 84.98"/><polygon class="cls-48" points="241.8 63.19 250.75 63.19 240.44 56.21 232.46 55.4 241.8 63.19"/><polygon class="cls-49" points="13.93 79.34 53.24 67.08 196.46 73.21 189.06 65.13 256.39 69.8 273.9 66.3 325.86 69.03 325.86 64.36 364.19 66.5 305.43 50.93 205.02 43.92 213.19 51.51 100.52 43.92 13.93 79.34"/><polygon class="cls-47" points="218.59 54.38 226.47 54.38 236.32 61.63 227.35 61.63 218.59 54.38"/><polygon class="cls-47" points="206.04 54.38 214.36 60.8 222.97 61.63 213.48 54.38 206.04 54.38"/><polygon class="cls-47" points="191.45 53.36 200.79 60.07 209.84 60.8 200.64 53.94 191.45 53.36"/><polygon class="cls-47" points="184.59 59.34 195.24 60.07 185.9 53.07 176.56 52.34 184.59 59.34"/></g></svg>